
<svg version="1.1" xmlns="http://www.w3.org/2000/svg" xmlns:xlink="http://www.w3.org/1999/xlink" width="1103.21" height="360.395">
	<path id="dp_path001" transform="matrix(1,0,0,1,-18.9173,-50.4453)" fill="black" fill-rule="evenodd" d="M 227.699,380.196 C 242.621,369.925 257.213,358.868 272.828,350.563 C 288.567,342.193 305.892,336.699 323.848,336.961 C 348.137,337.316 372.119,350.945 392.236,363.932 C 401.937,370.192 421.239,381.513 432.323,377.347 C 453.273,369.475 424.069,345.571 418.676,337.133 C 409.003,321.993 403.605,298.36 414.156,282.127 C 420.632,272.161 431.065,267.499 441.159,263.288 C 442.179,263.273 443.199,263.26 444.22,263.247 L 482.945,263.247 C 483.569,263.247 484.148,263.043 484.62,262.699 C 630.775,260.713 776.931,258.729 923.087,256.745 C 923.087,256.745 923.075,255.783 923.075,255.783 C 923.075,255.783 923.608,255.775 923.608,255.775 C 923.608,256.009 923.608,256.139 923.608,256.139 C 934.801,256.139 948.9,255.457 957.205,264.527 C 960.284,267.888 961.877,272.336 964.656,275.928 C 968.616,281.049 972.151,284.021 978.947,281.871 C 994.287,277.012 1008.75,271.008 1025.17,271.176 C 1040.65,271.332 1055.13,276.828 1068.06,285.092 C 1080.33,292.933 1093.75,302.412 1104.64,312.147 C 1107.54,314.735 1110.66,318.439 1115.16,315.816 C 1117.15,314.655 1118.42,312.14 1119.25,309.156 C 1121.8,299.985 1120.67,289.761 1118.83,280.571 C 1117.34,273.187 1116.67,265.597 1114.47,258.369 C 1113.19,254.129 1112.73,250.051 1110.34,246.197 C 1106.29,239.679 1100.49,237.741 1093.55,235.609 C 1089.67,234.417 1085.8,233.179 1081.93,231.971 C 1069.17,227.996 1056.37,224.137 1043.59,220.256 C 1029.92,216.107 1016.31,211.773 1002.68,207.487 C 990.464,203.644 978.179,200.105 965.781,196.912 C 964.379,196.551 962.911,196.004 961.479,195.807 C 956.569,195.135 952.125,197.008 948.328,200 C 945.149,202.508 942.116,207.585 937.887,208.247 C 932.965,209.02 927.696,208.204 922.704,208.391 C 922.716,208.391 922.74,208.431 922.764,208.488 C 776.407,206.515 630.051,204.543 483.695,202.571 C 483.455,202.504 483.204,202.469 482.945,202.469 C 480.683,202.469 478.421,202.468 476.16,202.469 C 469.924,202.384 463.689,202.3 457.456,202.217 C 442.648,170.763 486.525,145.936 498.484,123.419 C 506.707,107.932 504.104,84.1747 485.791,88.5773 C 469.201,92.5653 451.351,105.772 434.776,112.475 C 409.515,122.691 383.329,135.549 355.581,136.459 C 342.557,136.888 328.139,135.152 315.952,130.417 C 305.497,126.352 295.5,120.547 286.067,114.513 C 266.421,101.947 249.101,86.0453 229.517,73.3053 C 218.825,66.3493 207.133,60.576 194.807,57.1253 C 160.603,47.5533 115.369,50.0347 87.384,74.26 C 61.9027,96.316 40.008,128.957 29.8333,161.825 C 23.1387,183.451 20.328,207.715 20.328,230.416 C 20.328,329.155 80.1293,409.196 153.897,409.196 C 182.269,409.196 205.355,395.575 227.699,380.196 Z "/>
</svg>