
<svg version="1.1" xmlns="http://www.w3.org/2000/svg" xmlns:xlink="http://www.w3.org/1999/xlink" width="358.611" height="483.967">
	<path id="dp_path001" transform="matrix(1,0,0,1,-72.32,-228.881)" fill="black" fill-rule="evenodd" d="M 400.988,505.147 C 390.717,490.224 379.66,475.632 371.355,460.017 C 362.985,444.279 357.491,426.953 357.753,408.997 C 358.108,384.708 371.737,360.727 384.724,340.609 C 390.984,330.908 402.305,311.607 398.139,300.523 C 390.267,279.572 366.363,308.776 357.925,314.169 C 342.785,323.843 319.152,329.24 302.919,318.689 C 292.921,312.192 288.261,301.711 284.039,291.588 C 284.039,291.588 284.039,291.175 284.039,291.175 C 284.039,290.169 284.039,289.164 284.039,288.159 C 284.039,286.515 284.039,284.872 284.039,283.229 C 284.039,281.351 284.039,279.473 284.039,277.596 C 284.039,275.885 284.039,274.176 284.039,272.465 C 284.039,271.8 284.039,271.133 284.039,270.468 C 284.039,270.203 284.039,269.94 284.039,269.676 C 284.039,269.676 284.039,249.9 284.039,249.9 C 284.039,248.331 282.753,247.047 281.184,247.047 C 281.184,247.047 226.116,247.047 226.116,247.047 C 224.545,247.047 223.261,248.331 223.261,249.9 C 223.261,249.9 223.261,275.271 223.261,275.271 C 191.688,290.431 166.788,246.351 144.211,234.361 C 128.724,226.139 104.967,228.741 109.369,247.055 C 113.357,263.644 126.564,281.495 133.267,298.069 C 143.483,323.331 156.341,349.516 157.251,377.264 C 157.68,390.288 155.944,404.707 151.209,416.893 C 147.144,427.348 141.339,437.345 135.305,446.779 C 122.739,466.424 106.837,483.744 94.0973,503.328 C 87.1413,514.02 81.368,525.712 77.9173,538.039 C 68.3453,572.243 70.8267,617.476 95.052,645.461 C 117.108,670.943 149.749,692.837 182.617,703.012 C 204.243,709.707 228.507,712.517 251.208,712.517 C 349.947,712.517 429.988,652.716 429.988,578.948 C 429.988,550.576 416.367,527.491 400.988,505.147 Z "/>
</svg>