<?xml version="1.0" encoding="UTF-8" standalone="no"?>
<svg version="1.1" xmlns="http://www.w3.org/2000/svg" xmlns:xlink="http://www.w3.org/1999/xlink" width="110.951" height="109.377">
	<g id="dp_dp001" transform="matrix(1,0,0,1,-465.051,-212.032)">
		<path id="dp_path002" fill="black" fill-rule="evenodd" d="M 474.44,219.172 L 471.905,221.859 L 474.175,223.236 C 474.684,223.545 475.232,223.631 475.82,223.495 C 476.403,223.365 476.847,223.051 477.151,222.549 C 477.429,222.092 477.544,221.716 477.496,221.423 C 477.437,221.123 477.183,220.836 476.735,220.564 Z M 466.345,225.703 L 474.124,217.431 L 477.671,219.583 C 478.575,220.132 479.021,220.843 479.009,221.713 C 479.003,222.14 478.873,222.561 478.621,222.975 C 478.397,223.344 478.073,223.681 477.647,223.988 C 477.221,224.295 476.801,224.491 476.388,224.579 C 476.184,224.621 475.775,224.672 475.161,224.732 C 475.559,225.345 475.544,226 475.123,226.696 C 475.011,226.88 474.872,227.061 474.707,227.236 L 472.584,229.488 L 471.359,228.744 L 473.505,226.455 C 473.605,226.347 473.688,226.24 473.753,226.133 C 473.949,225.808 474.021,225.473 473.967,225.127 C 473.912,224.781 473.725,224.512 473.408,224.32 L 470.976,222.861 L 467.584,226.453 Z "/>
		<path id="dp_path003" fill="black" fill-rule="evenodd" d="M 483.436,230.259 L 477.703,230.34 L 477.708,229.264 L 482.159,229.168 C 482.212,228.541 481.937,228.029 481.333,227.635 C 480.885,227.343 480.344,227.185 479.708,227.161 C 479.057,227.141 478.483,227.251 477.981,227.489 C 477.481,227.725 477.103,228.043 476.844,228.437 C 476.524,228.928 476.429,229.451 476.561,230.001 C 476.687,230.563 476.995,231.004 477.487,231.325 C 478.072,231.707 478.844,231.831 479.805,231.697 C 479.955,231.695 480.123,231.66 480.316,231.591 L 480.721,232.664 C 480.045,232.909 479.339,232.995 478.601,232.92 C 477.856,232.837 477.181,232.6 476.577,232.205 C 475.535,231.524 475.023,230.679 475.041,229.672 C 475.053,229.088 475.233,228.531 475.581,227.997 C 476.076,227.24 476.853,226.643 477.913,226.204 C 478.585,225.931 479.309,225.831 480.084,225.908 C 480.851,225.993 481.54,226.235 482.153,226.635 C 482.807,227.063 483.256,227.597 483.501,228.237 C 483.739,228.871 483.717,229.544 483.436,230.259 Z "/>
		<path id="dp_path004" fill="black" fill-rule="evenodd" d="M 485.292,228.885 L 486.409,229.664 L 483.121,234.377 C 482.992,234.777 483.091,235.092 483.419,235.321 C 483.892,235.652 484.427,235.624 485.023,235.235 L 489.889,232.092 L 491.017,232.88 L 486.001,236.096 C 485.473,236.441 484.895,236.62 484.269,236.637 C 483.609,236.668 483.031,236.508 482.532,236.16 C 482.043,235.819 481.761,235.391 481.693,234.879 C 481.625,234.368 481.761,233.867 482.103,233.376 Z "/>
		<path id="dp_path005" fill="black" fill-rule="evenodd" d="M 489.273,236.847 C 488.78,237.52 488.708,238.22 489.057,238.947 C 489.199,239.243 489.401,239.488 489.668,239.683 C 490.323,240.161 491.097,240.32 491.993,240.159 C 492.875,239.999 493.557,239.589 494.037,238.932 C 494.572,238.2 494.636,237.468 494.231,236.735 C 494.085,236.476 493.895,236.26 493.656,236.085 C 493.28,235.811 492.827,235.647 492.296,235.591 C 491.764,235.533 491.272,235.588 490.817,235.755 C 490.133,236.008 489.619,236.373 489.273,236.847 Z M 491.597,234.377 C 492.759,234.321 493.759,234.6 494.599,235.213 C 495.031,235.531 495.409,235.973 495.733,236.543 C 495.977,236.976 496.052,237.491 495.96,238.085 C 495.877,238.635 495.68,239.125 495.364,239.557 C 494.575,240.637 493.452,241.232 491.996,241.34 C 490.671,241.441 489.564,241.167 488.676,240.517 C 487.796,239.875 487.36,239.015 487.369,237.939 C 487.375,237.355 487.591,236.772 488.016,236.191 C 488.847,235.055 490.041,234.449 491.597,234.377 Z "/>
		<path id="dp_path006" fill="black" fill-rule="evenodd" d="M 492.712,243.312 L 496.468,240.183 C 496.909,239.825 497.417,239.587 497.996,239.465 C 498.567,239.34 499.129,239.357 499.683,239.517 C 500.183,239.663 500.591,239.859 500.905,240.107 C 501.592,240.648 501.873,241.28 501.749,242.001 L 502.091,241.993 C 502.885,241.981 503.585,242.215 504.191,242.692 C 504.553,242.977 504.821,243.352 504.995,243.813 C 505.185,244.317 505.18,244.765 504.979,245.155 C 504.825,245.453 504.688,245.677 504.567,245.832 L 504.384,246.063 C 504.345,246.096 504.273,246.155 504.165,246.239 L 500.409,249.367 L 499.368,248.548 L 503.116,245.428 C 503.228,245.335 503.325,245.235 503.408,245.131 C 503.877,244.532 503.795,243.983 503.157,243.481 C 502.817,243.215 502.439,243.097 502.019,243.132 C 501.592,243.177 501.207,243.339 500.867,243.621 L 497.101,246.764 L 496.033,245.924 L 499.803,242.784 C 499.915,242.689 500.009,242.595 500.085,242.497 C 500.549,241.907 500.487,241.38 499.896,240.916 C 499.533,240.631 499.139,240.501 498.711,240.529 C 498.273,240.553 497.871,240.715 497.505,241.013 L 493.755,244.131 Z "/>
		<path id="dp_path007" fill="black" fill-rule="evenodd" d="M 511.044,251.497 L 505.345,250.849 L 505.488,249.783 L 509.915,250.253 C 510.048,249.637 509.84,249.095 509.291,248.628 C 508.884,248.28 508.367,248.055 507.739,247.951 C 507.096,247.849 506.512,247.884 505.985,248.056 C 505.459,248.228 505.043,248.495 504.736,248.853 C 504.356,249.3 504.196,249.804 504.257,250.368 C 504.309,250.941 504.56,251.417 505.007,251.799 C 505.537,252.252 506.288,252.473 507.259,252.463 C 507.407,252.479 507.579,252.465 507.779,252.421 L 508.044,253.539 C 507.343,253.695 506.632,253.689 505.909,253.523 C 505.181,253.347 504.541,253.024 503.993,252.556 C 503.045,251.748 502.644,250.845 502.791,249.848 C 502.876,249.271 503.127,248.74 503.54,248.256 C 504.127,247.568 504.973,247.073 506.081,246.773 C 506.781,246.587 507.513,246.58 508.271,246.756 C 509.021,246.937 509.675,247.265 510.231,247.74 C 510.825,248.247 511.203,248.833 511.364,249.5 C 511.52,250.159 511.413,250.824 511.044,251.497 Z "/>
		<path id="dp_path008" fill="black" fill-rule="evenodd" d="M 507.467,255.351 L 511.424,252.433 C 512.053,251.976 512.795,251.761 513.647,251.792 C 514.492,251.816 515.203,252.084 515.779,252.596 C 515.84,252.651 515.919,252.735 516.013,252.845 L 514.999,253.589 L 514.747,253.364 C 514.447,253.097 514.107,252.952 513.727,252.929 C 513.332,252.909 512.959,253.004 512.607,253.215 L 512.345,253.375 L 508.456,256.231 Z "/>
		<path id="dp_path009" fill="black" fill-rule="evenodd" d="M 519.808,259.455 L 514.139,258.592 L 514.321,257.531 L 518.728,258.168 C 518.884,257.559 518.696,257.009 518.165,256.521 C 517.772,256.159 517.263,255.915 516.64,255.787 C 516.001,255.66 515.416,255.673 514.884,255.825 C 514.351,255.977 513.925,256.228 513.605,256.575 C 513.208,257.007 513.029,257.505 513.069,258.071 C 513.1,258.644 513.332,259.131 513.764,259.528 C 514.279,260.001 515.02,260.251 515.989,260.276 C 516.137,260.299 516.309,260.292 516.511,260.255 L 516.735,261.381 C 516.028,261.511 515.316,261.479 514.6,261.285 C 513.88,261.081 513.253,260.735 512.723,260.247 C 511.807,259.403 511.44,258.485 511.624,257.496 C 511.731,256.921 512,256.401 512.432,255.932 C 513.044,255.267 513.909,254.805 515.028,254.547 C 515.735,254.388 516.465,254.408 517.216,254.612 C 517.959,254.821 518.6,255.173 519.139,255.669 C 519.713,256.199 520.068,256.799 520.204,257.472 C 520.335,258.135 520.203,258.796 519.808,259.455 Z "/>
		<path id="dp_path010" fill="none" fill-rule="evenodd" stroke="black" stroke-width="0.533333" d="M 464.964,227.551 C 482.088,238.015 498.36,250.021 513.476,264.127"/>
		<path id="dp_path011" fill="none" fill-rule="evenodd" stroke="black" stroke-width="0.533333" d="M 480.693,222.44 C 480.693,222.44 480.693,222.44 480.693,222.44 C 495.147,231.776 508.928,242.328 521.871,254.405"/>
		<path id="dp_path012" fill="black" fill-rule="evenodd" d="M 542.129,263.943 L 538.327,266.591 C 537.472,265.787 536.437,265.277 535.223,265.064 C 534.008,264.847 532.828,264.921 531.681,265.285 C 530.509,265.651 529.596,266.181 528.937,266.881 C 528.379,267.475 527.997,268.215 527.797,269.1 C 527.575,270.065 527.669,270.873 528.079,271.528 C 528.635,272.42 528.963,272.915 529.063,273.008 L 525.481,275.497 C 524.213,274.305 523.344,272.828 522.873,271.068 C 522.364,269.121 522.585,267.487 523.539,266.16 C 524.251,265.169 524.739,264.533 525.007,264.249 C 527.629,261.461 531.308,260.391 536.044,261.036 C 538.38,261.357 540.409,262.325 542.129,263.943 Z "/>
		<path id="dp_path013" fill="black" fill-rule="evenodd" d="M 541.896,282.179 L 536.316,285.799 L 533.435,282.916 L 538.889,279.387 C 539.177,279.197 539.435,278.989 539.66,278.765 C 540.768,277.657 540.807,276.585 539.773,275.553 C 539.285,275.064 538.599,274.732 537.713,274.553 C 536.769,274.368 536.039,274.469 535.525,274.86 C 535.12,275.163 534.859,275.369 534.745,275.483 C 534.227,276.001 533.996,276.587 534.048,277.243 C 534.073,277.897 534.345,278.484 534.863,279.001 C 535.252,279.391 535.711,279.673 536.236,279.849 L 532.753,282.124 C 532.099,281.793 531.592,281.449 531.229,281.087 C 530.059,279.916 529.435,278.625 529.359,277.216 C 529.271,275.745 529.805,274.432 530.963,273.275 C 532.511,271.728 534.429,270.941 536.721,270.917 C 539.42,270.88 541.627,271.716 543.333,273.425 C 544.503,274.595 545.075,275.871 545.051,277.252 C 545.009,278.647 544.405,279.929 543.237,281.096 C 542.847,281.487 542.401,281.848 541.896,282.179 Z "/>
		<path id="dp_path014" fill="black" fill-rule="evenodd" d="M 544.589,282.841 C 546.045,282.011 547.589,281.724 549.223,281.976 C 550.848,282.213 552.219,282.953 553.333,284.195 C 554.201,285.16 554.6,286.284 554.531,287.565 L 555.107,287.687 C 556.396,288.109 557.429,288.755 558.212,289.625 C 558.853,290.34 559.264,291.155 559.441,292.073 C 559.647,293.101 559.485,293.972 558.96,294.684 C 558.539,295.256 558.189,295.665 557.912,295.915 C 557.635,296.164 557.313,296.392 556.952,296.601 L 549.861,300.68 L 547.135,297.645 L 554.227,293.568 C 554.368,293.485 554.477,293.412 554.555,293.341 C 555.152,292.805 555.141,292.193 554.524,291.505 C 553.837,290.741 553.013,290.635 552.048,291.184 L 544.979,295.244 L 542.36,292.329 L 549.432,288.271 C 549.573,288.189 549.684,288.113 549.76,288.045 C 550.371,287.497 550.399,286.913 549.841,286.293 C 549.093,285.46 548.247,285.315 547.299,285.856 L 540.204,289.929 L 537.499,286.92 Z "/>
		<path id="dp_path015" fill="black" fill-rule="evenodd" d="M 562.891,295.647 L 565.472,298.792 L 553.375,305.068 L 550.793,301.925 Z M 568.003,293.34 C 568.723,293.484 569.296,293.819 569.727,294.343 C 570.085,294.78 570.247,295.257 570.209,295.772 C 570.171,296.285 569.932,296.724 569.492,297.084 C 568.848,297.613 568.043,297.78 567.076,297.587 C 566.335,297.437 565.756,297.107 565.337,296.596 C 564.976,296.157 564.821,295.687 564.868,295.188 C 564.916,294.689 565.16,294.259 565.604,293.895 C 566.273,293.344 567.073,293.16 568.003,293.34 Z "/>
		<path id="dp_path016" fill="black" fill-rule="evenodd" d="M 571.976,297.541 L 574.489,300.719 L 556.899,309.429 L 554.385,306.252 Z "/>
		<path id="dp_path017" fill="black" fill-rule="evenodd" d="M 572.092,318.62 L 566.057,321.42 L 563.611,318.16 L 569.507,315.433 C 569.819,315.285 570.103,315.116 570.357,314.925 C 571.609,313.985 571.799,312.929 570.921,311.761 C 570.507,311.209 569.873,310.784 569.021,310.481 C 568.113,310.165 567.376,310.164 566.812,310.479 C 566.368,310.72 566.081,310.889 565.953,310.985 C 565.367,311.425 565.055,311.973 565.015,312.629 C 564.948,313.281 565.135,313.9 565.575,314.485 C 565.905,314.925 566.32,315.271 566.815,315.519 L 563.047,317.28 C 562.445,316.861 561.992,316.449 561.684,316.039 C 560.689,314.715 560.253,313.351 560.376,311.944 C 560.496,310.476 561.209,309.251 562.517,308.268 C 564.268,306.953 566.279,306.444 568.549,306.743 C 571.228,307.085 573.295,308.223 574.745,310.155 C 575.737,311.477 576.124,312.821 575.907,314.185 C 575.669,315.56 574.892,316.745 573.571,317.736 C 573.131,318.068 572.637,318.363 572.092,318.62 Z "/>
		<path id="dp_path018" fill="black" fill-rule="evenodd" d="M 521.487,236.655 L 529.192,216.495 L 530.852,212.167 L 545.203,225.48 L 541.012,227.46 Z "/>
		<path id="dp_path019" fill="black" fill-rule="evenodd" d="M 544.341,257.855 L 552.047,237.696 L 553.707,233.368 L 568.057,246.68 L 563.867,248.66 Z "/>
		<path id="dp_path020" fill="black" fill-rule="evenodd" d="M 559.26,241.772 L 551.556,261.931 L 549.896,266.259 L 535.544,252.947 L 539.736,250.967 Z "/>
		<path id="dp_path021" fill="black" fill-rule="evenodd" d="M 536.405,220.572 L 528.701,240.731 L 527.041,245.059 L 512.689,231.745 L 516.881,229.765 Z "/>
		<path id="dp_path022" fill="black" fill-rule="evenodd" d="M 526.277,254.409 L 532.365,238.479 L 533.677,235.057 L 545.02,245.579 L 541.707,247.144 Z "/>
		<path id="dp_path023" fill="black" fill-rule="evenodd" d="M 554.471,224.017 L 548.381,239.948 L 547.069,243.369 L 535.728,232.848 L 539.04,231.283 Z "/>
	</g>
</svg>