<?xml version="1.0" encoding="UTF-8" standalone="no"?>
<svg version="1.1" xmlns="http://www.w3.org/2000/svg" xmlns:xlink="http://www.w3.org/1999/xlink" width="1100.85" height="377.705">
	<path id="dp_path001" transform="matrix(1,0,0,1,-22.8587,-59.9053)" fill="black" fill-rule="evenodd" d="M 208.336,424.139 C 212.021,421.531 215.761,418.905 219.543,416.284 C 219.543,416.284 219.543,415.901 219.543,415.901 C 244.519,397.829 270.395,379.184 300.872,372.9 C 343.232,364.172 384.172,375.003 422.499,392.644 C 433.849,397.865 446.083,405.043 458.097,405.945 C 468.708,406.744 472.205,395.028 472.823,384.927 C 472.787,384.908 472.748,384.889 472.711,384.868 C 422.969,357.72 393.344,316.115 406.54,291.933 C 408.736,287.907 412.899,282.939 417.617,281.016 C 586.587,278.721 755.557,276.427 924.528,274.133 C 924.528,274.133 924.516,273.171 924.516,273.171 C 924.516,273.171 925.049,273.163 925.049,273.163 C 925.049,273.397 925.049,273.527 925.049,273.527 C 936.243,273.527 950.341,272.845 958.647,281.915 C 961.725,285.276 963.319,289.724 966.097,293.316 C 970.057,298.437 973.592,301.409 980.388,299.259 C 995.728,294.4 1010.19,288.396 1026.61,288.564 C 1042.09,288.72 1056.57,294.216 1069.5,302.48 C 1081.78,310.321 1095.2,319.8 1106.09,329.535 C 1108.98,332.123 1112.11,335.827 1116.6,333.204 C 1118.59,332.043 1119.86,329.528 1120.69,326.544 C 1123.24,317.373 1122.11,307.149 1120.27,297.959 C 1118.78,290.575 1118.11,282.985 1115.92,275.757 C 1114.63,271.517 1114.17,267.439 1111.78,263.585 C 1107.73,257.067 1101.94,255.129 1094.99,252.997 C 1091.11,251.805 1087.24,250.567 1083.37,249.359 C 1070.61,245.384 1057.81,241.525 1045.03,237.644 C 1031.36,233.495 1017.75,229.161 1004.12,224.875 C 991.905,221.032 979.62,217.493 967.223,214.3 C 965.82,213.939 964.352,213.392 962.92,213.195 C 958.011,212.523 953.567,214.396 949.769,217.388 C 946.591,219.896 943.557,224.973 939.328,225.635 C 934.407,226.408 929.137,225.592 924.145,225.779 C 924.157,225.779 924.181,225.819 924.205,225.876 C 778.552,223.912 632.899,221.949 487.247,219.987 C 487.004,219.8 486.703,219.689 486.376,219.689 C 479.295,219.689 472.215,219.689 465.135,219.689 C 464.365,219.679 463.597,219.668 462.829,219.659 L 462.828,219.657 C 462.788,219.633 462.751,219.608 462.713,219.58 C 457.555,215.644 453.956,210.829 452.297,205.196 C 444.532,178.767 482.308,144.388 536.675,128.408 C 539.869,127.468 543.049,126.62 546.209,125.849 C 546.209,117.533 546.209,112.691 546.209,112.691 C 546.543,102.671 547.248,92.0933 546.228,82.192 C 544.812,68.416 526.503,78.276 520.724,81.3173 C 502.085,91.1267 483.825,99.496 464.011,106.073 C 443.707,112.809 423.273,119.143 402.529,124.051 C 390.757,126.841 378.891,129.164 366.948,130.837 C 348.928,133.364 330.368,134.795 312.417,131.336 C 312.073,131.231 311.727,131.133 311.383,131.024 C 275.039,119.4 239.885,95.9933 208.336,73.6533 C 190.912,61.2907 173.181,60.3827 154.041,62.5093 C 150.64,63.204 147.239,63.904 143.836,64.5987 C 135.612,66.2827 127.368,67.9093 119.145,69.6133 C 108.88,71.7387 98.604,73.8293 88.3253,75.8787 C 78.752,77.788 69.2187,79.912 59.636,81.7707 C 53.4173,82.976 47.1907,83.9867 41.0973,85.76 C 39.308,86.2827 36.2213,86.6613 36.2213,89.208 C 36.2213,89.208 36.2213,119.16 36.2213,119.16 C 38.2293,125.873 47.9987,126.849 53.7147,128.759 C 64.2053,132.267 80.5987,136.497 85.3213,147.991 C 89.224,157.481 76.78,157.847 70.7507,156.847 C 63.692,155.679 56.8427,153.173 50.1013,150.849 C 47.536,149.965 44.884,148.919 42.184,148.499 C 35.58,147.473 27.736,147.453 24.4253,154.409 C 24.3573,154.559 24.3053,154.713 24.24,154.864 C 24.24,154.864 24.24,342.341 24.24,342.345 C 24.24,342.345 24.24,342.927 24.24,342.927 C 24.3053,343.076 24.3573,343.233 24.4253,343.381 C 24.5213,343.583 24.6347,343.761 24.7413,343.955 C 25.132,345.045 25.6333,346.067 26.3067,346.913 C 29.5853,351.028 36.5787,350.059 41.0973,349.252 C 52.46,347.22 62.86,341.296 74.492,340.485 C 78.9267,340.179 86.5413,340.733 86.5613,347.043 C 86.5747,351.777 78.3053,357.465 74.8893,359.959 C 68.4933,364.621 61.1133,366.56 53.7147,369.032 C 47.9987,370.944 38.232,371.919 36.224,378.632 C 36.224,378.632 36.224,408.583 36.224,408.583 C 36.224,411.129 39.308,411.508 41.0973,412.032 C 47.1907,413.807 53.4173,414.817 59.636,416.02 C 87.756,421.471 115.773,427.461 143.836,433.195 C 147.239,433.889 150.64,434.588 154.041,435.28 C 173.181,437.411 190.912,436.5 208.336,424.139 Z "/>
</svg>