<?xml version="1.0" encoding="UTF-8" standalone="no"?>
<svg version="1.1" xmlns="http://www.w3.org/2000/svg" xmlns:xlink="http://www.w3.org/1999/xlink" width="374.479" height="522.049">
	<path id="dp_path001" transform="matrix(1,0,0,1,-472.067,-187.555)" fill="black" fill-rule="evenodd" d="M 834.217,525.752 C 831.609,522.067 828.984,518.327 826.363,514.545 C 826.363,514.545 825.98,514.545 825.98,514.545 C 807.908,489.569 789.263,463.693 782.979,433.216 C 774.251,390.856 785.081,349.916 802.723,311.589 C 807.944,300.239 815.121,288.005 816.024,275.991 C 816.823,265.38 805.107,261.883 795.005,261.265 C 794.987,261.301 794.968,261.34 794.947,261.377 C 767.799,311.119 726.193,340.744 702.012,327.548 C 697.103,324.869 690.791,319.267 690.308,313.299 C 690.055,310.141 690.215,306.892 690.167,303.725 C 690.167,295.197 689.904,286.661 689.784,278.135 C 689.732,274.444 689.573,270.697 689.62,267.012 C 689.641,265.413 689.627,263.811 689.627,262.211 C 689.624,258.304 689.615,254.397 689.617,250.492 C 689.619,249.565 689.619,248.637 689.619,247.712 C 689.619,246.927 688.976,246.284 688.192,246.284 C 688.192,246.284 631.195,246.284 631.195,246.284 C 630.409,246.284 629.768,246.927 629.768,247.712 C 629.768,247.712 629.768,269.697 629.768,269.697 C 629.768,269.928 629.828,270.143 629.925,270.335 C 629.931,270.715 629.888,271.075 629.659,271.375 C 625.723,276.533 620.908,280.132 615.275,281.791 C 588.845,289.556 554.467,251.78 538.487,197.413 C 537.547,194.219 536.699,191.039 535.928,187.879 C 527.612,187.879 522.769,187.879 522.769,187.879 C 512.749,187.545 502.172,186.84 492.271,187.86 C 478.495,189.276 488.355,207.585 491.396,213.364 C 501.205,232.003 509.575,250.263 516.152,270.077 C 522.888,290.381 529.221,310.815 534.129,331.559 C 536.92,343.331 539.243,355.197 540.916,367.14 C 543.443,385.16 544.873,403.72 541.415,421.671 C 541.309,422.015 541.212,422.361 541.103,422.705 C 529.479,459.049 506.072,494.203 483.732,525.752 C 471.369,543.176 470.461,560.907 472.588,580.047 C 473.283,583.448 473.983,586.849 474.677,590.252 C 476.361,598.476 477.988,606.72 479.692,614.943 C 481.817,625.208 483.908,635.484 485.957,645.763 C 487.867,655.336 489.991,664.869 491.849,674.452 C 493.055,680.671 494.065,686.897 495.839,692.991 C 496.361,694.78 496.74,697.867 499.287,697.867 C 499.287,697.867 529.239,697.867 529.239,697.867 C 535.952,695.859 536.928,686.089 538.837,680.373 C 542.345,669.883 546.576,653.489 558.069,648.767 C 567.56,644.864 567.925,657.308 566.925,663.337 C 565.757,670.396 563.252,677.245 560.928,683.987 C 560.044,686.552 558.997,689.204 558.577,691.904 C 557.552,698.508 557.532,706.352 564.488,709.663 C 564.637,709.731 564.792,709.783 564.943,709.848 C 564.943,709.848 752.42,709.848 752.424,709.848 C 752.424,709.848 753.005,709.848 753.005,709.848 C 753.155,709.783 753.312,709.731 753.46,709.663 C 753.661,709.567 753.84,709.453 754.033,709.347 C 755.124,708.956 756.145,708.455 756.992,707.781 C 761.107,704.503 760.137,697.509 759.331,692.991 C 757.299,681.628 751.375,671.228 750.564,659.596 C 750.257,655.161 750.812,647.547 757.121,647.527 C 761.856,647.513 767.544,655.783 770.037,659.199 C 774.7,665.595 776.639,672.975 779.111,680.373 C 781.023,686.089 781.997,695.856 788.711,697.864 C 788.711,697.864 818.661,697.864 818.661,697.864 C 821.208,697.864 821.587,694.78 822.111,692.991 C 823.885,686.897 824.896,680.671 826.099,674.452 C 831.549,646.332 837.54,618.315 843.273,590.252 C 843.968,586.849 844.667,583.448 845.359,580.047 C 847.489,560.907 846.579,543.176 834.217,525.752 Z "/>
</svg>