<?xml version="1.0" encoding="UTF-8" standalone="no"?>
<svg version="1.1" xmlns="http://www.w3.org/2000/svg" xmlns:xlink="http://www.w3.org/1999/xlink" width="107.804" height="96">
	<g id="dp_dp001" transform="matrix(1,0,0,1,-2573.54,-66.9987)">
		<path id="dp_path002" fill="black" fill-rule="evenodd" d="M 2583.29,74.2213 L 2580.76,76.908 L 2583.03,78.2853 C 2583.53,78.5947 2584.08,78.68 2584.67,78.544 C 2585.25,78.4147 2585.7,78.1 2586,77.5987 C 2586.28,77.1413 2586.39,76.7653 2586.35,76.472 C 2586.29,76.172 2586.03,75.8853 2585.59,75.6133 Z M 2575.2,80.752 L 2582.97,72.48 L 2586.52,74.632 C 2587.43,75.1813 2587.87,75.892 2587.86,76.7627 C 2587.85,77.1893 2587.72,77.6107 2587.47,78.024 C 2587.25,78.3933 2586.92,78.7307 2586.5,79.0373 C 2586.07,79.344 2585.65,79.54 2585.24,79.628 C 2585.03,79.6707 2584.63,79.7213 2584.01,79.7813 C 2584.41,80.3947 2584.39,81.0493 2583.97,81.7453 C 2583.86,81.9293 2583.72,82.1107 2583.56,82.2853 L 2581.43,84.5373 L 2580.21,83.7933 L 2582.36,81.504 C 2582.46,81.396 2582.54,81.2893 2582.6,81.1827 C 2582.8,80.8573 2582.87,80.5227 2582.82,80.176 C 2582.76,79.8307 2582.58,79.5613 2582.26,79.3693 L 2579.83,77.9107 L 2576.43,81.5027 Z "/>
		<path id="dp_path003" fill="black" fill-rule="evenodd" d="M 2592.29,85.308 L 2586.55,85.3893 L 2586.56,84.3133 L 2591.01,84.2173 C 2591.06,83.5907 2590.79,83.0787 2590.18,82.684 C 2589.74,82.392 2589.19,82.2347 2588.56,82.2107 C 2587.91,82.1907 2587.33,82.3 2586.83,82.5387 C 2586.33,82.7747 2585.95,83.092 2585.69,83.4867 C 2585.37,83.9773 2585.28,84.5 2585.41,85.0507 C 2585.54,85.612 2585.85,86.0533 2586.34,86.3747 C 2586.92,86.756 2587.69,86.88 2588.66,86.7467 C 2588.81,86.744 2588.97,86.7093 2589.17,86.64 L 2589.57,87.7133 C 2588.9,87.9587 2588.19,88.044 2587.45,87.9693 C 2586.71,87.8867 2586.03,87.6493 2585.43,87.2547 C 2584.39,86.5733 2583.87,85.728 2583.89,84.7213 C 2583.9,84.1373 2584.08,83.58 2584.43,83.0467 C 2584.93,82.2893 2585.7,81.692 2586.76,81.2533 C 2587.44,80.98 2588.16,80.88 2588.93,80.9573 C 2589.7,81.0427 2590.39,81.284 2591,81.684 C 2591.66,82.112 2592.11,82.6467 2592.35,83.2867 C 2592.59,83.92 2592.57,84.5933 2592.29,85.308 Z "/>
		<path id="dp_path004" fill="black" fill-rule="evenodd" d="M 2594.14,83.9347 L 2595.26,84.7133 L 2591.97,89.4267 C 2591.84,89.8267 2591.94,90.1413 2592.27,90.3707 C 2592.74,90.7013 2593.28,90.6733 2593.87,90.284 L 2598.74,87.1413 L 2599.87,87.9293 L 2594.85,91.1453 C 2594.32,91.4907 2593.75,91.6693 2593.12,91.6867 C 2592.46,91.7173 2591.88,91.5573 2591.38,91.2093 C 2590.89,90.868 2590.61,90.44 2590.54,89.928 C 2590.48,89.4173 2590.61,88.916 2590.95,88.4253 Z "/>
		<path id="dp_path005" fill="black" fill-rule="evenodd" d="M 2598.12,91.896 C 2597.63,92.5693 2597.56,93.2693 2597.91,93.996 C 2598.05,94.292 2598.25,94.5373 2598.52,94.732 C 2599.17,95.2107 2599.95,95.3693 2600.84,95.208 C 2601.73,95.048 2602.41,94.6387 2602.89,93.9813 C 2603.42,93.2493 2603.49,92.5173 2603.08,91.784 C 2602.94,91.5253 2602.75,91.3093 2602.51,91.1347 C 2602.13,90.86 2601.68,90.696 2601.15,90.64 C 2600.61,90.5827 2600.12,90.6373 2599.67,90.804 C 2598.98,91.0573 2598.47,91.4227 2598.12,91.896 Z M 2600.45,89.4267 C 2601.61,89.3707 2602.61,89.6493 2603.45,90.2627 C 2603.88,90.58 2604.26,91.0227 2604.58,91.592 C 2604.83,92.0253 2604.9,92.54 2604.81,93.1347 C 2604.73,93.684 2604.53,94.1747 2604.21,94.6067 C 2603.43,95.6867 2602.3,96.2813 2600.85,96.3893 C 2599.52,96.4907 2598.41,96.216 2597.53,95.5667 C 2596.65,94.924 2596.21,94.064 2596.22,92.988 C 2596.23,92.404 2596.44,91.8213 2596.87,91.24 C 2597.7,90.104 2598.89,89.4987 2600.45,89.4267 Z "/>
		<path id="dp_path006" fill="black" fill-rule="evenodd" d="M 2601.56,98.3613 L 2605.32,95.232 C 2605.76,94.8747 2606.27,94.636 2606.85,94.5147 C 2607.42,94.3893 2607.98,94.4067 2608.53,94.5667 C 2609.03,94.712 2609.44,94.908 2609.76,95.156 C 2610.44,95.6973 2610.72,96.3293 2610.6,97.0507 L 2610.94,97.0427 C 2611.74,97.0307 2612.44,97.264 2613.04,97.7413 C 2613.4,98.0267 2613.67,98.4013 2613.85,98.8627 C 2614.04,99.3667 2614.03,99.8147 2613.83,100.204 C 2613.68,100.503 2613.54,100.727 2613.42,100.881 L 2613.23,101.112 C 2613.2,101.145 2613.12,101.204 2613.02,101.288 L 2609.26,104.416 L 2608.22,103.597 L 2611.97,100.477 C 2612.08,100.384 2612.18,100.284 2612.26,100.18 C 2612.73,99.5813 2612.65,99.032 2612.01,98.5307 C 2611.67,98.264 2611.29,98.1467 2610.87,98.1813 C 2610.44,98.2267 2610.06,98.388 2609.72,98.6707 L 2605.95,101.813 L 2604.88,100.973 L 2608.65,97.8333 C 2608.77,97.7387 2608.86,97.644 2608.94,97.5467 C 2609.4,96.956 2609.34,96.4293 2608.75,95.9653 C 2608.38,95.68 2607.99,95.5507 2607.56,95.5787 C 2607.12,95.6027 2606.72,95.764 2606.36,96.0627 L 2602.61,99.18 Z "/>
		<path id="dp_path007" fill="black" fill-rule="evenodd" d="M 2619.89,106.547 L 2614.2,105.899 L 2614.34,104.832 L 2618.77,105.303 C 2618.9,104.687 2618.69,104.144 2618.14,103.677 C 2617.73,103.329 2617.22,103.104 2616.59,103 C 2615.95,102.899 2615.36,102.933 2614.84,103.105 C 2614.31,103.277 2613.89,103.544 2613.59,103.903 C 2613.21,104.349 2613.05,104.853 2613.11,105.417 C 2613.16,105.991 2613.41,106.467 2613.86,106.848 C 2614.39,107.301 2615.14,107.523 2616.11,107.512 C 2616.26,107.528 2616.43,107.515 2616.63,107.471 L 2616.89,108.588 C 2616.19,108.744 2615.48,108.739 2614.76,108.572 C 2614.03,108.396 2613.39,108.073 2612.84,107.605 C 2611.9,106.797 2611.49,105.895 2611.64,104.897 C 2611.73,104.32 2611.98,103.789 2612.39,103.305 C 2612.98,102.617 2613.82,102.123 2614.93,101.823 C 2615.63,101.636 2616.36,101.629 2617.12,101.805 C 2617.87,101.987 2618.53,102.315 2619.08,102.789 C 2619.68,103.296 2620.05,103.883 2620.21,104.549 C 2620.37,105.208 2620.26,105.873 2619.89,106.547 Z "/>
		<path id="dp_path008" fill="black" fill-rule="evenodd" d="M 2616.32,110.4 L 2620.27,107.483 C 2620.9,107.025 2621.65,106.811 2622.5,106.841 C 2623.34,106.865 2624.05,107.133 2624.63,107.645 C 2624.69,107.7 2624.77,107.784 2624.86,107.895 L 2623.85,108.639 L 2623.6,108.413 C 2623.3,108.147 2622.96,108.001 2622.58,107.979 C 2622.18,107.959 2621.81,108.053 2621.46,108.264 L 2621.2,108.424 L 2617.31,111.28 Z "/>
		<path id="dp_path009" fill="black" fill-rule="evenodd" d="M 2628.66,114.504 L 2622.99,113.641 L 2623.17,112.58 L 2627.58,113.217 C 2627.73,112.608 2627.55,112.059 2627.02,111.571 C 2626.62,111.208 2626.11,110.964 2625.49,110.836 C 2624.85,110.709 2624.27,110.723 2623.73,110.875 C 2623.2,111.027 2622.78,111.277 2622.46,111.624 C 2622.06,112.056 2621.88,112.555 2621.92,113.12 C 2621.95,113.693 2622.18,114.18 2622.61,114.577 C 2623.13,115.051 2623.87,115.3 2624.84,115.325 C 2624.99,115.348 2625.16,115.341 2625.36,115.304 L 2625.59,116.431 C 2624.88,116.56 2624.17,116.528 2623.45,116.335 C 2622.73,116.131 2622.1,115.784 2621.57,115.296 C 2620.66,114.452 2620.29,113.535 2620.47,112.545 C 2620.58,111.971 2620.85,111.451 2621.28,110.981 C 2621.89,110.316 2622.76,109.855 2623.88,109.596 C 2624.59,109.437 2625.32,109.457 2626.07,109.661 C 2626.81,109.871 2627.45,110.223 2627.99,110.719 C 2628.56,111.248 2628.92,111.848 2629.05,112.521 C 2629.19,113.184 2629.05,113.845 2628.66,114.504 Z "/>
		<path id="dp_path010" fill="none" fill-rule="evenodd" stroke="black" stroke-width="0.533333" d="M 2573.81,82.6 C 2590.94,93.064 2607.21,105.071 2622.33,119.176"/>
		<path id="dp_path011" fill="none" fill-rule="evenodd" stroke="black" stroke-width="0.533333" d="M 2589.54,77.4893 C 2589.54,77.4893 2589.54,77.4893 2589.54,77.4893 C 2604,86.8253 2617.78,97.3773 2630.72,109.455"/>
		<path id="dp_path012" fill="black" fill-rule="evenodd" d="M 2640.52,120.347 L 2642.54,122.252 C 2642.98,122.665 2643.55,122.856 2644.24,122.823 C 2644.91,122.793 2645.45,122.556 2645.87,122.112 C 2646.19,121.775 2646.35,121.405 2646.36,120.999 C 2646.36,120.611 2646.2,120.263 2645.87,119.956 L 2643.83,118.033 Z M 2627.58,123.831 L 2643.71,112.644 L 2649.79,118.365 C 2651.14,119.632 2651.64,121.019 2651.3,122.525 C 2651.13,123.275 2650.74,123.972 2650.14,124.617 C 2649.49,125.307 2648.67,125.831 2647.67,126.187 C 2646.65,126.547 2645.67,126.672 2644.72,126.563 L 2643.96,126.467 C 2644.42,127.489 2644.24,128.432 2643.43,129.296 C 2643.27,129.464 2643.05,129.647 2642.77,129.845 L 2637.71,133.356 L 2634.37,130.212 L 2638.59,127.275 C 2638.81,127.131 2638.99,126.976 2639.15,126.804 C 2639.93,125.977 2639.98,125.239 2639.29,124.591 L 2637.19,122.653 L 2630.94,126.992 Z "/>
		<path id="dp_path013" fill="black" fill-rule="evenodd" d="M 2655.91,138.619 L 2646.68,136.357 L 2647.35,134.221 L 2652.86,135.565 C 2652.94,134.936 2652.72,134.348 2652.18,133.8 C 2651.25,132.841 2650.01,132.483 2648.46,132.724 C 2647.71,132.839 2647.06,133.155 2646.53,133.676 C 2646.03,134.159 2645.78,134.731 2645.77,135.388 C 2645.73,136.037 2645.96,136.612 2646.44,137.111 C 2647.14,137.823 2648.07,138.225 2649.25,138.32 L 2649.86,138.364 L 2650.59,141.64 C 2648.6,141.888 2646.76,141.548 2645.09,140.619 C 2644.28,140.171 2643.63,139.7 2643.15,139.201 C 2642.02,138.04 2641.46,136.748 2641.47,135.328 C 2641.46,133.92 2642.04,132.651 2643.2,131.523 C 2644.66,130.097 2646.5,129.351 2648.71,129.284 C 2651.4,129.197 2653.62,130.053 2655.37,131.853 C 2656.35,132.859 2656.9,133.971 2657.02,135.191 C 2657.15,136.411 2656.78,137.552 2655.91,138.619 Z "/>
		<path id="dp_path014" fill="black" fill-rule="evenodd" d="M 2655.9,140.505 C 2657.37,139.695 2658.92,139.428 2660.55,139.701 C 2662.17,139.96 2663.53,140.719 2664.63,141.975 C 2665.49,142.951 2665.87,144.079 2665.78,145.36 L 2666.36,145.489 C 2667.64,145.928 2668.67,146.587 2669.44,147.469 C 2670.07,148.191 2670.47,149.012 2670.63,149.933 C 2670.83,150.963 2670.65,151.832 2670.12,152.536 C 2669.69,153.103 2669.33,153.508 2669.05,153.753 C 2668.77,154 2668.45,154.224 2668.08,154.428 L 2660.94,158.412 L 2658.25,155.341 L 2665.4,151.359 C 2665.54,151.279 2665.65,151.205 2665.73,151.136 C 2666.33,150.608 2666.33,149.996 2665.72,149.3 C 2665.05,148.527 2664.22,148.409 2663.25,148.945 L 2656.13,152.913 L 2653.55,149.964 L 2660.67,145.999 C 2660.82,145.919 2660.93,145.844 2661.01,145.777 C 2661.62,145.237 2661.66,144.653 2661.11,144.027 C 2660.37,143.183 2659.53,143.028 2658.57,143.556 L 2651.43,147.536 L 2648.76,144.491 Z "/>
		<path id="dp_path015" fill="black" fill-rule="evenodd" d="M 2674.02,153.479 L 2676.57,156.645 L 2664.43,162.821 L 2661.87,159.657 Z M 2679.15,151.213 C 2679.87,151.365 2680.44,151.704 2680.87,152.232 C 2681.22,152.672 2681.38,153.151 2681.34,153.664 C 2681.29,154.179 2681.05,154.613 2680.61,154.971 C 2679.96,155.495 2679.15,155.655 2678.19,155.453 C 2677.45,155.297 2676.87,154.963 2676.46,154.449 C 2676.1,154.007 2675.95,153.535 2676,153.036 C 2676.05,152.537 2676.3,152.109 2676.75,151.749 C 2677.42,151.205 2678.22,151.027 2679.15,151.213 Z "/>
		<path id="dp_path016" fill="black" fill-rule="evenodd" d="M 2630.34,91.704 L 2638.04,71.544 L 2639.7,67.216 L 2654.05,80.5293 L 2649.86,82.5093 Z "/>
		<path id="dp_path017" fill="black" fill-rule="evenodd" d="M 2653.19,112.904 L 2660.9,92.7453 L 2662.56,88.4173 L 2676.91,101.729 L 2672.72,103.709 Z "/>
		<path id="dp_path018" fill="black" fill-rule="evenodd" d="M 2668.11,96.8213 L 2660.41,116.98 L 2658.75,121.308 L 2644.39,107.996 L 2648.59,106.016 Z "/>
		<path id="dp_path019" fill="black" fill-rule="evenodd" d="M 2645.26,75.6213 L 2637.55,95.78 L 2635.89,100.108 L 2621.54,86.7947 L 2625.73,84.8147 Z "/>
		<path id="dp_path020" fill="black" fill-rule="evenodd" d="M 2635.13,109.459 L 2641.22,93.528 L 2642.53,90.1067 L 2653.87,100.628 L 2650.56,102.193 Z "/>
		<path id="dp_path021" fill="black" fill-rule="evenodd" d="M 2663.32,79.0667 L 2657.23,94.9973 L 2655.92,98.4187 L 2644.58,87.8973 L 2647.89,86.332 Z "/>
	</g>
</svg>