<?xml version="1.0" encoding="UTF-8" standalone="no"?>
<svg version="1.1" xmlns="http://www.w3.org/2000/svg" xmlns:xlink="http://www.w3.org/1999/xlink" width="353.851" height="489.52">
	<path id="dp_path001" transform="matrix(1,0,0,1,-900.423,-243.187)" fill="black" fill-rule="evenodd" d="M 1216.24,504.988 C 1205.45,491.763 1192.91,478.267 1184.34,463.057 C 1178.7,453.047 1174.78,442.296 1174.21,430.389 C 1172.68,398.427 1196.36,371.5 1212.11,345.839 C 1217.47,337.1 1223.4,328.353 1228.42,319.195 C 1229.91,316.484 1233.23,312.837 1232.98,309.419 C 1232.77,306.413 1229.01,306.447 1226.86,306.447 C 1218.95,306.447 1211.03,306.447 1203.12,306.447 C 1201.26,306.447 1199.83,306.645 1198.64,308.211 C 1189.27,320.544 1180.88,333.753 1169.91,344.759 C 1167.01,347.667 1163.83,351.083 1160.17,353.023 C 1146.1,360.465 1130.73,354.179 1120.7,343.063 C 1117.21,339.184 1114.08,334.981 1110.93,330.829 C 1109.83,329.396 1108.66,328.027 1107.58,326.585 C 1106.57,325.233 1106.07,323.447 1105.62,321.812 C 1105.62,321.812 1105.62,265.244 1105.62,265.244 C 1105.62,264.46 1104.98,263.817 1104.2,263.817 C 1104.2,263.817 1045.84,263.817 1045.84,263.817 C 1045.06,263.817 1044.42,264.46 1044.42,265.244 C 1044.42,265.244 1044.42,318.908 1044.42,318.908 C 1037.98,323.957 1031.06,327.255 1021.66,322.291 C 1008.65,315.424 1001.31,299.739 994.769,285.327 C 994.769,285.327 973.509,243.672 973.509,243.672 C 971.621,243.304 969.593,243.331 967.599,243.413 C 967.599,243.413 941.013,243.413 941.013,243.413 C 937.205,243.155 931.66,243.048 930.684,246.163 C 929.88,248.733 932.42,253.573 933.185,256.108 C 934.319,259.856 935.616,263.552 936.908,267.239 C 938.675,272.272 940.56,277.255 942.393,282.26 C 961.035,333.168 987.075,389.596 968.869,444.589 C 953.848,489.971 900.439,518.875 900.355,569.821 C 900.34,580.415 902.073,591.443 904.584,601.723 C 912.616,634.629 927.197,665.364 941.605,695.852 C 945.148,703.345 948.092,711.671 952.548,718.673 C 954.448,721.66 955.261,724.655 959.285,724.907 C 964.52,725.239 969.923,724.864 975.173,724.864 C 976.733,724.923 978.193,724.983 979.615,724.147 C 993.844,715.773 980.701,675.247 1006.09,680.551 C 1018.84,683.216 1023.15,693.88 1032.39,701.479 C 1059,723.361 1085.37,732.801 1119.03,732.801 C 1193.65,732.801 1254.15,669.612 1254.15,591.665 C 1254.15,557.704 1237,530.433 1216.24,504.988 Z "/>
</svg>