<?xml version="1.0" encoding="UTF-8" standalone="no"?>
<svg version="1.1" xmlns="http://www.w3.org/2000/svg" xmlns:xlink="http://www.w3.org/1999/xlink" width="479.213" height="162.099">
	<g id="dp_dp001" transform="matrix(1,0,0,1,-1586.69,-33.1053)">
		<path id="dp_path002" fill="white" fill-rule="evenodd" d="M 1607.49,98.9587 L 1604.4,126.833 L 1624.45,124.821 C 1628.95,124.369 1632.66,122.388 1635.61,118.875 C 1638.56,115.429 1639.81,111.497 1639.36,107.059 C 1638.96,103.019 1637.94,100.217 1636.31,98.6547 C 1634.58,97.1027 1631.73,96.524 1627.77,96.9213 Z M 1588.23,175.543 L 1597.62,89.8453 L 1628.96,86.7 C 1636.96,85.896 1642.91,88.1627 1646.81,93.5 C 1648.72,96.124 1649.86,99.2667 1650.23,102.928 C 1650.56,106.191 1650.13,109.716 1648.94,113.524 C 1647.76,117.331 1646.11,120.439 1644,122.857 C 1642.96,124.051 1640.71,126.229 1637.27,129.389 C 1642.47,131.3 1645.38,135.335 1646,141.483 C 1646.16,143.113 1646.15,144.841 1645.95,146.656 L 1643.36,170.008 L 1632.53,171.096 L 1635.09,147.404 C 1635.2,146.293 1635.22,145.272 1635.12,144.321 C 1634.83,141.455 1633.73,139.093 1631.82,137.245 C 1629.91,135.397 1627.55,134.613 1624.75,134.895 L 1603.34,137.161 L 1599.17,174.445 Z "/>
		<path id="dp_path003" fill="white" fill-rule="evenodd" d="M 1712.62,124.956 L 1678.26,151.697 L 1673.37,145.144 L 1699.89,124.193 C 1697.35,120.151 1693.34,118.312 1687.87,118.687 C 1683.82,118.964 1679.82,120.489 1675.86,123.255 C 1671.83,126.113 1668.85,129.409 1666.9,133.141 C 1664.95,136.867 1664.11,140.525 1664.35,144.097 C 1664.65,148.539 1666.47,152.132 1669.79,154.869 C 1673.12,157.693 1677.01,158.953 1681.46,158.649 C 1686.75,158.288 1692,155.501 1697.21,150.293 C 1698.1,149.596 1698.96,148.608 1699.81,147.308 L 1707.18,151.959 C 1704.21,156.536 1700.32,160.284 1695.51,163.216 C 1690.62,166.123 1685.44,167.769 1679.98,168.144 C 1670.54,168.788 1663.57,166.017 1659.08,159.828 C 1656.47,156.24 1655.01,152.035 1654.68,147.205 C 1654.21,140.36 1656.19,133.18 1660.61,125.668 C 1663.42,120.935 1667.35,117.017 1672.39,113.944 C 1677.43,110.947 1682.72,109.255 1688.26,108.876 C 1694.18,108.471 1699.35,109.653 1703.76,112.413 C 1708.1,115.16 1711.06,119.34 1712.62,124.956 Z "/>
		<path id="dp_path004" fill="white" fill-rule="evenodd" d="M 1717.51,108.171 L 1727.85,107.765 L 1729.55,151.361 C 1730.61,154.377 1732.65,155.831 1735.68,155.712 C 1740.06,155.541 1743.17,152.919 1745,147.836 L 1760.04,106.503 L 1770.48,106.095 L 1754.87,148.563 C 1753.25,153.071 1750.58,156.808 1746.86,159.777 C 1743.01,162.985 1738.78,164.675 1734.17,164.856 C 1729.63,165.033 1725.98,163.731 1723.21,160.948 C 1720.45,158.165 1718.98,154.511 1718.81,149.976 Z "/>
		<path id="dp_path005" fill="white" fill-rule="evenodd" d="M 1778.17,138.105 C 1778.26,144.451 1781.02,149.017 1786.46,151.828 C 1788.67,152.977 1791.02,153.539 1793.52,153.503 C 1799.68,153.413 1805.11,150.837 1809.8,145.761 C 1814.42,140.764 1816.68,135.168 1816.59,128.98 C 1816.49,122.1 1813.54,117.369 1807.72,114.779 C 1805.67,113.871 1803.51,113.433 1801.27,113.465 C 1797.73,113.517 1794.24,114.592 1790.76,116.683 C 1787.28,118.764 1784.54,121.341 1782.55,124.424 C 1779.56,129.096 1778.1,133.655 1778.17,138.105 Z M 1780.98,112.509 C 1787.77,106.868 1795.11,103.988 1803,103.875 C 1807.07,103.816 1811.39,104.769 1815.96,106.744 C 1819.42,108.265 1822.22,111.036 1824.38,115.065 C 1826.39,118.775 1827.43,122.655 1827.49,126.715 C 1827.64,136.875 1823.55,145.611 1815.22,152.916 C 1807.64,159.584 1799.68,162.98 1791.32,163.1 C 1783.05,163.22 1776.47,159.996 1771.61,153.428 C 1768.99,149.864 1767.63,145.345 1767.55,139.879 C 1767.4,129.183 1771.87,120.06 1780.98,112.509 Z "/>
		<path id="dp_path006" fill="white" fill-rule="evenodd" d="M 1828.57,161.509 L 1837.04,125.379 C 1838.09,121.192 1840.08,117.416 1843.03,114.04 C 1845.92,110.675 1849.41,108.208 1853.5,106.653 C 1857.19,105.245 1860.57,104.575 1863.61,104.637 C 1870.25,104.773 1874.84,107.32 1877.38,112.264 L 1879.42,110.657 C 1884.18,106.957 1889.49,105.173 1895.34,105.295 C 1898.85,105.368 1902.18,106.413 1905.34,108.421 C 1908.8,110.601 1910.82,113.348 1911.38,116.631 C 1911.81,119.139 1912,121.135 1911.97,122.617 L 1911.93,124.852 C 1911.84,125.231 1911.67,125.92 1911.39,126.92 L 1902.92,163.052 L 1892.86,162.844 L 1901.33,126.8 C 1901.59,125.721 1901.72,124.669 1901.74,123.664 C 1901.86,117.888 1898.84,114.935 1892.69,114.808 C 1889.41,114.74 1886.57,115.764 1884.19,117.892 C 1881.8,120.117 1880.21,122.856 1879.44,126.121 L 1870.96,162.388 L 1860.65,162.176 L 1869.15,125.908 C 1869.4,124.819 1869.54,123.817 1869.56,122.879 C 1869.68,117.18 1866.89,114.272 1861.19,114.155 C 1857.68,114.081 1854.69,115.103 1852.23,117.228 C 1849.68,119.373 1847.99,122.188 1847.13,125.675 L 1838.63,161.719 Z "/>
		<path id="dp_path007" fill="white" fill-rule="evenodd" d="M 1977.04,127.172 L 1939.58,149.385 L 1935.56,142.271 L 1964.51,124.816 C 1962.49,120.487 1958.74,118.159 1953.27,117.843 C 1949.22,117.609 1945.05,118.621 1940.78,120.867 C 1936.42,123.197 1933.05,126.092 1930.65,129.552 C 1928.25,133.001 1926.95,136.525 1926.75,140.1 C 1926.49,144.544 1927.83,148.336 1930.79,151.469 C 1933.73,154.691 1937.44,156.428 1941.89,156.685 C 1947.18,156.989 1952.74,154.887 1958.56,150.372 C 1959.53,149.793 1960.51,148.921 1961.52,147.737 L 1968.25,153.277 C 1964.73,157.445 1960.39,160.676 1955.25,162.98 C 1950.04,165.251 1944.69,166.233 1939.23,165.917 C 1929.78,165.372 1923.22,161.748 1919.54,155.044 C 1917.41,151.157 1916.48,146.801 1916.76,141.969 C 1917.16,135.119 1920.02,128.244 1925.34,121.347 C 1928.73,117.005 1933.12,113.611 1938.51,111.195 C 1943.89,108.855 1949.34,107.84 1954.89,108.16 C 1960.81,108.503 1965.79,110.324 1969.83,113.616 C 1973.78,116.885 1976.19,121.404 1977.04,127.172 Z "/>
		<path id="dp_path008" fill="white" fill-rule="evenodd" d="M 1973.06,166.964 L 1983.63,131.161 C 1985.34,125.511 1988.84,120.813 1994.14,117.081 C 1999.36,113.353 2004.9,111.715 2010.73,112.176 C 2011.35,112.225 2012.21,112.371 2013.3,112.604 L 2010.57,121.759 L 2008.01,121.556 C 2004.97,121.316 2002.24,122 1999.84,123.604 C 1997.36,125.287 1995.54,127.569 1994.38,130.465 L 1993.52,132.631 L 1983.09,167.756 Z "/>
		<path id="dp_path009" fill="white" fill-rule="evenodd" d="M 2066.04,135.264 L 2027.73,155.955 L 2023.99,148.684 L 2053.61,132.407 C 2051.77,128 2048.12,125.523 2042.67,124.988 C 2038.63,124.592 2034.43,125.435 2030.06,127.508 C 2025.62,129.661 2022.13,132.417 2019.59,135.777 C 2017.06,139.128 2015.62,142.596 2015.27,146.16 C 2014.83,150.591 2016.03,154.435 2018.86,157.684 C 2021.67,161.02 2025.3,162.907 2029.74,163.341 C 2035.01,163.859 2040.65,161.98 2046.65,157.703 C 2047.64,157.164 2048.66,156.332 2049.71,155.189 L 2056.21,160.996 C 2052.52,165.017 2048.06,168.072 2042.84,170.167 C 2037.53,172.227 2032.15,172.993 2026.7,172.459 C 2017.29,171.535 2010.87,167.649 2007.47,160.804 C 2005.49,156.833 2004.75,152.445 2005.22,147.627 C 2005.89,140.797 2009.02,134.044 2014.62,127.365 C 2018.18,123.164 2022.71,119.949 2028.19,117.752 C 2033.65,115.631 2039.14,114.835 2044.67,115.377 C 2050.58,115.956 2055.48,117.977 2059.38,121.429 C 2063.2,124.853 2065.42,129.467 2066.04,135.264 Z "/>
		<path id="dp_path010" fill="none" fill-rule="evenodd" stroke="white" stroke-width="4.04933" d="M 1586.81,193.1 C 1738.45,178.1 1891.99,176.327 2048.13,192.576"/>
		<path id="dp_path011" fill="none" fill-rule="evenodd" stroke="white" stroke-width="4.04933" d="M 1660.2,90.132 C 1660.2,90.132 1660.2,90.132 1660.2,90.132 C 1790.5,80.5187 1922.29,81.3467 2055.98,95.256"/>
		<path id="dp_path012" fill="white" fill-rule="evenodd" d="M 1810.62,64.92 L 1802.44,44.612 L 1800.69,40.248 L 1820.55,40.248 L 1818.79,44.612 Z "/>
		<path id="dp_path013" fill="white" fill-rule="evenodd" d="M 1810.62,42.6667 L 1818.79,62.9747 L 1820.55,67.3387 L 1800.69,67.3387 L 1802.44,62.9747 Z "/>
		<path id="dp_path014" fill="white" fill-rule="evenodd" d="M 1826.43,74.8213 L 1819.97,58.772 L 1818.58,55.3227 L 1834.27,55.3227 L 1832.89,58.772 Z "/>
		<path id="dp_path015" fill="white" fill-rule="evenodd" d="M 1826.43,32.7653 L 1832.89,48.8147 L 1834.27,52.264 L 1818.58,52.264 L 1819.97,48.8147 Z "/>
		<path id="dp_path016" fill="white" fill-rule="evenodd" d="M 1842.24,64.92 L 1834.06,44.612 L 1832.31,40.248 L 1852.17,40.248 L 1850.42,44.612 Z "/>
		<path id="dp_path017" fill="white" fill-rule="evenodd" d="M 1842.24,42.6667 L 1850.42,62.9747 L 1852.17,67.3387 L 1832.31,67.3387 L 1834.06,62.9747 Z "/>
	</g>
</svg>