
<svg version="1.1" xmlns="http://www.w3.org/2000/svg" xmlns:xlink="http://www.w3.org/1999/xlink" width="479.68" height="204.8">
	<g id="dp_dp001" transform="matrix(1,0,0,1,-1584.52,-38.8813)">
		<path id="dp_path002" fill="black" fill-rule="evenodd" d="M 1605.49,104.959 L 1602.4,132.833 L 1622.45,130.821 C 1626.95,130.369 1630.66,128.388 1633.61,124.875 C 1636.56,121.429 1637.81,117.497 1637.36,113.059 C 1636.96,109.019 1635.94,106.217 1634.31,104.655 C 1632.58,103.103 1629.73,102.524 1625.77,102.921 Z M 1586.23,181.543 L 1595.62,95.8453 L 1626.96,92.7 C 1634.96,91.896 1640.91,94.1627 1644.81,99.5 C 1646.72,102.124 1647.86,105.267 1648.23,108.928 C 1648.56,112.191 1648.13,115.716 1646.94,119.524 C 1645.76,123.331 1644.11,126.439 1642,128.857 C 1640.96,130.051 1638.71,132.229 1635.27,135.389 C 1640.47,137.3 1643.38,141.335 1644,147.483 C 1644.16,149.113 1644.15,150.841 1643.95,152.656 L 1641.36,176.008 L 1630.53,177.096 L 1633.09,153.404 C 1633.2,152.293 1633.22,151.272 1633.12,150.321 C 1632.83,147.455 1631.73,145.093 1629.82,143.245 C 1627.91,141.397 1625.55,140.613 1622.75,140.895 L 1601.34,143.161 L 1597.17,180.445 Z "/>
		<path id="dp_path003" fill="black" fill-rule="evenodd" d="M 1710.62,130.956 L 1676.26,157.697 L 1671.37,151.144 L 1697.89,130.193 C 1695.35,126.151 1691.34,124.312 1685.87,124.687 C 1681.82,124.964 1677.82,126.489 1673.86,129.255 C 1669.83,132.113 1666.85,135.409 1664.9,139.141 C 1662.95,142.867 1662.11,146.525 1662.35,150.097 C 1662.65,154.539 1664.47,158.132 1667.79,160.869 C 1671.12,163.693 1675.01,164.953 1679.46,164.649 C 1684.75,164.288 1690,161.501 1695.21,156.293 C 1696.1,155.596 1696.96,154.608 1697.81,153.308 L 1705.18,157.959 C 1702.21,162.536 1698.32,166.284 1693.51,169.216 C 1688.62,172.123 1683.44,173.769 1677.98,174.144 C 1668.54,174.788 1661.57,172.017 1657.08,165.828 C 1654.47,162.24 1653.01,158.035 1652.68,153.205 C 1652.21,146.36 1654.19,139.18 1658.61,131.668 C 1661.42,126.935 1665.35,123.017 1670.39,119.944 C 1675.43,116.947 1680.72,115.255 1686.26,114.876 C 1692.18,114.471 1697.35,115.653 1701.76,118.413 C 1706.1,121.16 1709.06,125.34 1710.62,130.956 Z "/>
		<path id="dp_path004" fill="black" fill-rule="evenodd" d="M 1715.51,114.171 L 1725.85,113.765 L 1727.55,157.361 C 1728.61,160.377 1730.65,161.831 1733.68,161.712 C 1738.06,161.541 1741.17,158.919 1743,153.836 L 1758.04,112.503 L 1768.48,112.095 L 1752.87,154.563 C 1751.25,159.071 1748.58,162.808 1744.86,165.777 C 1741.01,168.985 1736.78,170.675 1732.17,170.856 C 1727.63,171.033 1723.98,169.731 1721.21,166.948 C 1718.45,164.165 1716.98,160.511 1716.81,155.976 Z "/>
		<path id="dp_path005" fill="black" fill-rule="evenodd" d="M 1776.17,144.105 C 1776.26,150.451 1779.02,155.017 1784.46,157.828 C 1786.67,158.977 1789.02,159.539 1791.52,159.503 C 1797.68,159.413 1803.11,156.837 1807.8,151.761 C 1812.42,146.764 1814.68,141.168 1814.59,134.98 C 1814.49,128.1 1811.54,123.369 1805.72,120.779 C 1803.67,119.871 1801.51,119.433 1799.27,119.465 C 1795.73,119.517 1792.24,120.592 1788.76,122.683 C 1785.28,124.764 1782.54,127.341 1780.55,130.424 C 1777.56,135.096 1776.1,139.655 1776.17,144.105 Z M 1778.98,118.509 C 1785.77,112.868 1793.11,109.988 1801,109.875 C 1805.07,109.816 1809.39,110.769 1813.96,112.744 C 1817.42,114.265 1820.22,117.036 1822.38,121.065 C 1824.39,124.775 1825.43,128.655 1825.49,132.715 C 1825.64,142.875 1821.55,151.611 1813.22,158.916 C 1805.64,165.584 1797.68,168.98 1789.32,169.1 C 1781.05,169.22 1774.47,165.996 1769.61,159.428 C 1766.99,155.864 1765.63,151.345 1765.55,145.879 C 1765.4,135.183 1769.87,126.06 1778.98,118.509 Z "/>
		<path id="dp_path006" fill="black" fill-rule="evenodd" d="M 1826.57,167.509 L 1835.04,131.379 C 1836.09,127.192 1838.08,123.416 1841.03,120.04 C 1843.92,116.675 1847.41,114.208 1851.5,112.653 C 1855.19,111.245 1858.57,110.575 1861.61,110.637 C 1868.25,110.773 1872.84,113.32 1875.38,118.264 L 1877.42,116.657 C 1882.18,112.957 1887.49,111.173 1893.34,111.295 C 1896.85,111.368 1900.18,112.413 1903.34,114.421 C 1906.8,116.601 1908.82,119.348 1909.38,122.631 C 1909.81,125.139 1910,127.135 1909.97,128.617 L 1909.93,130.852 C 1909.84,131.231 1909.67,131.92 1909.39,132.92 L 1900.92,169.052 L 1890.86,168.844 L 1899.33,132.8 C 1899.59,131.721 1899.72,130.669 1899.74,129.664 C 1899.86,123.888 1896.84,120.935 1890.69,120.808 C 1887.41,120.74 1884.57,121.764 1882.19,123.892 C 1879.8,126.117 1878.21,128.856 1877.44,132.121 L 1868.96,168.388 L 1858.65,168.176 L 1867.15,131.908 C 1867.4,130.819 1867.54,129.817 1867.56,128.879 C 1867.68,123.18 1864.89,120.272 1859.19,120.155 C 1855.68,120.081 1852.69,121.103 1850.23,123.228 C 1847.68,125.373 1845.99,128.188 1845.13,131.675 L 1836.63,167.719 Z "/>
		<path id="dp_path007" fill="black" fill-rule="evenodd" d="M 1975.04,133.172 L 1937.58,155.385 L 1933.56,148.271 L 1962.51,130.816 C 1960.49,126.487 1956.74,124.159 1951.27,123.843 C 1947.22,123.609 1943.05,124.621 1938.78,126.867 C 1934.42,129.197 1931.05,132.092 1928.65,135.552 C 1926.25,139.001 1924.95,142.525 1924.75,146.1 C 1924.49,150.544 1925.83,154.336 1928.79,157.469 C 1931.73,160.691 1935.44,162.428 1939.89,162.685 C 1945.18,162.989 1950.74,160.887 1956.56,156.372 C 1957.53,155.793 1958.51,154.921 1959.52,153.737 L 1966.25,159.277 C 1962.73,163.445 1958.39,166.676 1953.25,168.98 C 1948.04,171.251 1942.69,172.233 1937.23,171.917 C 1927.78,171.372 1921.22,167.748 1917.54,161.044 C 1915.41,157.157 1914.48,152.801 1914.76,147.969 C 1915.16,141.119 1918.02,134.244 1923.34,127.347 C 1926.73,123.005 1931.12,119.611 1936.51,117.195 C 1941.89,114.855 1947.34,113.84 1952.89,114.16 C 1958.81,114.503 1963.79,116.324 1967.83,119.616 C 1971.78,122.885 1974.19,127.404 1975.04,133.172 Z "/>
		<path id="dp_path008" fill="black" fill-rule="evenodd" d="M 1971.06,172.964 L 1981.63,137.161 C 1983.34,131.511 1986.84,126.813 1992.14,123.081 C 1997.36,119.353 2002.9,117.715 2008.73,118.176 C 2009.35,118.225 2010.21,118.371 2011.3,118.604 L 2008.57,127.759 L 2006.01,127.556 C 2002.97,127.316 2000.24,128 1997.84,129.604 C 1995.36,131.287 1993.54,133.569 1992.38,136.465 L 1991.52,138.631 L 1981.09,173.756 Z "/>
		<path id="dp_path009" fill="black" fill-rule="evenodd" d="M 2064.04,141.264 L 2025.73,161.955 L 2021.99,154.684 L 2051.61,138.407 C 2049.77,134 2046.12,131.523 2040.67,130.988 C 2036.63,130.592 2032.43,131.435 2028.06,133.508 C 2023.62,135.661 2020.13,138.417 2017.59,141.777 C 2015.06,145.128 2013.62,148.596 2013.27,152.16 C 2012.83,156.591 2014.03,160.435 2016.86,163.684 C 2019.67,167.02 2023.3,168.907 2027.74,169.341 C 2033.01,169.859 2038.65,167.98 2044.65,163.703 C 2045.64,163.164 2046.66,162.332 2047.71,161.189 L 2054.21,166.996 C 2050.52,171.017 2046.06,174.072 2040.84,176.167 C 2035.53,178.227 2030.15,178.993 2024.7,178.459 C 2015.29,177.535 2008.87,173.649 2005.47,166.804 C 2003.49,162.833 2002.75,158.445 2003.22,153.627 C 2003.89,146.797 2007.02,140.044 2012.62,133.365 C 2016.18,129.164 2020.71,125.949 2026.19,123.752 C 2031.65,121.631 2037.14,120.835 2042.67,121.377 C 2048.58,121.956 2053.48,123.977 2057.38,127.429 C 2061.2,130.853 2063.42,135.467 2064.04,141.264 Z "/>
		<path id="dp_path010" fill="none" fill-rule="evenodd" stroke="black" stroke-width="4.04933" d="M 1584.81,199.1 C 1736.45,184.1 1889.99,182.327 2046.13,198.576"/>
		<path id="dp_path011" fill="none" fill-rule="evenodd" stroke="black" stroke-width="4.04933" d="M 1658.2,96.132 C 1658.2,96.132 1658.2,96.132 1658.2,96.132 C 1788.5,86.5187 1920.29,87.3467 2053.98,101.256"/>
	</g>
	<g id="dp_dp012" transform="matrix(1,0,0,1,122.08,195.314)">
		<path id="dp_path013" fill="black" d="M 12.2653,-20.6773 L 12.2653,-17.064 C 10.612,-17.064 9.01733,-16.5907 7.47467,-15.6373 C 5.6,-14.488 4.66133,-12.6827 4.66133,-10.2187 C 4.66133,-8.81733 5.05333,-7.54533 5.83867,-6.396 C 6.624,-5.24933 7.65733,-4.39467 8.94667,-3.83333 C 10.04,-3.36133 11.144,-3.12267 12.2653,-3.12267 L 12.2653,0.28 L 11.6773,0.28 C 8.31333,0.28 5.55067,-0.992 3.392,-3.54 C 1.73867,-5.50267 0.910667,-7.7 0.910667,-10.1347 C 0.910667,-12.5707 1.79467,-14.852 3.56,-16.98 C 5.60667,-19.4427 8.50933,-20.6773 12.2653,-20.6773 Z "/>
		<path id="dp_path014" fill="black" d="M 15.02,-8.916 L 15.02,-20.256 L 18.6307,-20.256 L 18.6307,-8.92933 C 18.6307,-7.16667 19.156,-5.74 20.2107,-4.65067 C 21.2653,-3.56 22.6787,-3.01333 24.452,-3.01333 C 26.2813,-3.01333 27.7347,-3.54667 28.8187,-4.608 C 29.9013,-5.67067 30.4413,-7.11067 30.4413,-8.92933 L 30.4413,-20.256 L 34.0853,-20.256 L 34.0853,-8.916 C 34.0853,-6.06 33.216,-3.81333 31.4747,-2.176 C 29.736,-0.54 27.4227,0.28 24.532,0.28 C 21.6413,0.28 19.3347,-0.54 17.6107,-2.176 C 15.8827,-3.81333 15.02,-6.06 15.02,-8.916 Z "/>
		<path id="dp_path015" fill="black" d="M 37.1147,-5.46667 L 40.7773,-5.34133 C 40.7773,-3.95333 41.436,-3.25867 42.7533,-3.25867 C 43.4573,-3.25867 44.0533,-3.476 44.544,-3.908 C 45.0347,-4.33867 45.28,-4.90267 45.28,-5.6 C 45.28,-6.40667 44.912,-7.06133 44.176,-7.56267 L 40.0547,-10.3413 C 38.352,-11.492 37.5,-13.0293 37.5,-14.964 C 37.5,-17.568 38.7893,-19.3453 41.3653,-20.2987 C 42.0387,-20.5507 42.712,-20.6773 43.384,-20.6773 C 44.3373,-20.6773 45.3187,-20.3893 46.324,-19.8187 C 47.3333,-19.244 47.9933,-18.5387 48.3013,-17.6987 C 48.6933,-16.636 48.8893,-15.896 48.8893,-15.476 L 45.3573,-15.6027 C 45.2173,-16.7653 44.5307,-17.348 43.296,-17.348 C 42.68,-17.348 42.1613,-17.144 41.74,-16.7413 C 41.32,-16.3347 41.1093,-15.8227 41.1093,-15.2093 C 41.1093,-14.428 41.516,-13.756 42.3293,-13.1987 L 46.072,-10.6813 C 47.8107,-9.504 48.68,-7.85333 48.68,-5.72667 C 48.68,-4.044 47.9653,-2.492 46.5347,-1.06133 C 45.6373,-0.168 44.4187,0.28 42.876,0.28 C 41.8107,0.28 40.788,-0.0213333 39.8067,-0.62 C 38.8253,-1.22267 38.1307,-1.99733 37.724,-2.95067 C 37.3173,-3.9 37.1147,-4.74133 37.1147,-5.46667 Z "/>
		<path id="dp_path016" fill="black" d="M 51.916,-6.89733 L 51.916,-26.4947 L 55.5267,-26.4947 L 55.5267,-20.3613 L 59.7667,-20.3613 L 59.7667,-17.032 L 55.5267,-17.032 L 55.5267,-6.89733 C 55.5267,-4.65467 56.62,-3.40667 58.8027,-3.15467 L 59.7667,-3.15467 L 59.7667,0.084 C 59.3467,0.168 58.94,0.210667 58.5507,0.210667 C 57.2053,0.210667 55.9053,-0.252 54.6467,-1.17733 C 53.3853,-2.10267 52.604,-3.21067 52.2947,-4.5 C 52.0427,-5.56533 51.916,-6.364 51.916,-6.89733 Z "/>
		<path id="dp_path017" fill="black" d="M 64.2467,-10.388 C 64.2467,-8.45333 64.892,-6.764 66.1813,-5.32 C 67.4707,-3.876 69.08,-3.15467 71.0147,-3.15467 C 72.92,-3.15467 74.5147,-3.86267 75.8053,-5.27733 C 77.0947,-6.69333 77.7387,-8.36933 77.7387,-10.304 C 77.7387,-13.556 76.296,-15.7707 73.4107,-16.948 C 72.5707,-17.284 71.7573,-17.4533 70.972,-17.4533 C 69.7107,-17.4533 68.5253,-17.0947 67.4187,-16.38 C 66.3147,-15.6653 65.508,-14.74 65.004,-13.6053 C 64.4987,-12.4693 64.2467,-11.3973 64.2467,-10.388 Z M 60.4613,-10.472 C 60.4613,-13.468 61.4507,-15.9533 63.4267,-17.9253 C 65.4027,-19.8987 67.888,-20.8867 70.888,-20.8867 C 74.8133,-20.8867 77.796,-19.3067 79.8427,-16.1413 C 80.964,-14.404 81.524,-12.4733 81.524,-10.3453 C 81.524,-7.51733 80.2627,-4.78667 77.7387,-2.15467 C 76.2013,-0.533333 73.916,0.28 70.888,0.28 C 67.916,0.28 65.4387,-0.764 63.448,-2.84933 C 61.4573,-4.93467 60.4613,-7.47467 60.4613,-10.472 Z "/>
		<path id="dp_path018" fill="black" d="M 84.216,0 L 84.216,-13.0293 C 84.216,-14.484 84.6093,-15.844 85.3947,-17.1053 C 86.1787,-18.364 87.2307,-19.2893 88.548,-19.8773 C 89.7533,-20.4107 90.904,-20.6773 91.9973,-20.6773 C 94.352,-20.6773 96.2027,-19.7973 97.548,-18.0413 L 98.1373,-18.6267 C 99.5107,-19.9933 101.249,-20.6773 103.352,-20.6773 C 104.781,-20.6773 106.148,-20.292 107.452,-19.52 C 108.756,-18.7493 109.66,-17.7293 110.164,-16.4533 C 110.669,-15.1787 110.921,-14.036 110.921,-13.0293 L 110.921,0 L 107.312,0 L 107.312,-12.9947 C 107.312,-15.1533 106.523,-16.472 104.949,-16.948 C 104.305,-17.144 103.727,-17.2427 103.221,-17.2427 C 102.069,-17.2427 101.147,-16.8427 100.46,-16.044 C 99.7693,-15.2453 99.4267,-14.256 99.4267,-13.0787 L 99.4267,0 L 95.712,0 L 95.712,-13.0787 C 95.712,-14.284 95.368,-15.28 94.6853,-16.0653 C 93.9973,-16.8493 93.0693,-17.2427 91.8947,-17.2427 C 90.6373,-17.2427 89.6453,-16.8493 88.916,-16.0653 C 88.1907,-15.28 87.8267,-14.256 87.8267,-12.9947 L 87.8267,0 Z "/>
		<path id="dp_path019" fill="black" d="M 147.257,-9.78533 L 147.257,-1.79467 C 147.257,1.62667 146.157,4.34533 143.956,6.364 C 141.752,8.38267 138.927,9.392 135.479,9.392 C 133.681,9.392 132.027,9.12533 130.512,8.58933 L 130.512,4.96267 C 131.859,5.64933 133.471,5.99333 135.352,5.99333 C 137.764,5.99333 139.719,5.30533 141.223,3.928 C 142.723,2.55467 143.472,0.676 143.472,-1.71067 L 143.472,-9.708 C 143.472,-11.8133 142.869,-13.5667 141.66,-14.968 C 140.399,-16.4853 138.731,-17.2427 136.652,-17.2427 C 134.547,-17.2427 132.857,-16.52 131.581,-15.0733 C 130.303,-13.6253 129.664,-11.8387 129.664,-9.704 C 129.664,-7.68133 130.365,-6.06667 131.767,-4.86133 C 133.172,-3.652 134.897,-3.04933 136.944,-3.04933 C 138.769,-3.04933 140.396,-3.504 141.825,-4.416 L 141.825,-0.684 C 140.227,-0.0426667 138.489,0.28 136.611,0.28 C 133.555,0.28 131.017,-0.645333 128.999,-2.492 C 126.896,-4.39467 125.844,-6.85867 125.844,-9.88267 C 125.844,-11.9267 126.349,-13.8467 127.359,-15.6373 C 128.424,-17.596 129.853,-18.928 131.652,-19.6253 C 133.783,-20.4667 135.548,-20.8867 136.951,-20.8867 C 140.007,-20.8867 142.505,-19.78 144.44,-17.5653 C 146.319,-15.4627 147.257,-12.8693 147.257,-9.78533 Z "/>
		<path id="dp_path020" fill="black" d="M 150.832,-8.916 L 150.832,-20.256 L 154.443,-20.256 L 154.443,-8.92933 C 154.443,-7.16667 154.968,-5.74 156.023,-4.65067 C 157.077,-3.56 158.491,-3.01333 160.264,-3.01333 C 162.093,-3.01333 163.547,-3.54667 164.631,-4.608 C 165.713,-5.67067 166.253,-7.11067 166.253,-8.92933 L 166.253,-20.256 L 169.897,-20.256 L 169.897,-8.916 C 169.897,-6.06 169.028,-3.81333 167.287,-2.176 C 165.548,-0.54 163.235,0.28 160.344,0.28 C 157.453,0.28 155.147,-0.54 153.423,-2.176 C 151.695,-3.81333 150.832,-6.06 150.832,-8.916 Z "/>
		<path id="dp_path021" fill="black" d="M 173.523,0 L 173.523,-20.256 L 177.132,-20.256 L 177.132,0 Z M 172.647,-27.928 C 172.647,-28.6853 172.912,-29.3333 173.445,-29.8653 C 173.977,-30.3987 174.623,-30.6653 175.38,-30.6653 C 176.137,-30.6653 176.781,-30.3987 177.315,-29.8653 C 177.847,-29.3333 178.113,-28.6853 178.113,-27.928 C 178.113,-27.1707 177.847,-26.5293 177.315,-26.0107 C 176.781,-25.492 176.137,-25.2333 175.38,-25.2333 C 174.623,-25.2333 173.977,-25.492 173.445,-26.0107 C 172.912,-26.5293 172.647,-27.1707 172.647,-27.928 Z "/>
		<path id="dp_path022" fill="black" d="M 180.888,-6.89733 L 180.888,-26.4947 L 184.499,-26.4947 L 184.499,-20.3613 L 188.739,-20.3613 L 188.739,-17.032 L 184.499,-17.032 L 184.499,-6.89733 C 184.499,-4.65467 185.592,-3.40667 187.775,-3.15467 L 188.739,-3.15467 L 188.739,0.084 C 188.319,0.168 187.912,0.210667 187.523,0.210667 C 186.177,0.210667 184.877,-0.252 183.619,-1.17733 C 182.357,-2.10267 181.576,-3.21067 181.267,-4.5 C 181.015,-5.56533 180.888,-6.364 180.888,-6.89733 Z "/>
		<path id="dp_path023" fill="black" d="M 210.812,-9.38133 L 210.812,0 L 207.167,0 L 207.167,-9.252 C 207.167,-11.5227 206.381,-13.6533 204.808,-15.644 C 203.852,-16.8493 202.32,-17.4533 200.213,-17.4533 C 197.067,-17.4533 194.904,-15.9213 193.724,-12.8613 C 193.387,-11.992 193.219,-11.1333 193.219,-10.2933 C 193.219,-8.944 193.597,-7.64 194.355,-6.37467 C 195.111,-5.11333 196.092,-4.26533 197.299,-3.82667 C 198.504,-3.392 199.457,-3.13333 200.157,-3.04933 C 202.036,-3.04933 203.648,-3.49067 204.995,-4.37333 L 204.995,-0.684 C 203.536,-0.0426667 201.924,0.28 200.157,0.28 C 197.129,0.28 194.585,-0.701333 192.525,-2.664 C 190.464,-4.62267 189.433,-7.104 189.433,-10.104 C 189.433,-13.916 191.004,-16.9267 194.148,-19.1413 C 195.913,-20.376 197.908,-20.992 200.123,-20.992 C 203.519,-20.992 206.168,-19.8853 208.079,-17.6693 C 209.9,-15.5947 210.812,-12.8307 210.812,-9.38133 Z "/>
		<path id="dp_path024" fill="black" d="M 214.421,0 L 214.421,-13.1107 C 214.421,-16.3627 215.908,-18.6587 218.88,-20.004 C 219.861,-20.452 220.884,-20.6773 221.949,-20.6773 L 222.412,-20.6773 C 222.637,-20.6213 222.805,-20.5933 222.917,-20.5933 L 222.917,-17.2427 L 221.992,-17.2427 C 219.661,-17.2427 218.368,-16.0507 218.116,-13.668 L 218.032,-12.8693 L 218.032,0 Z "/>
		<path id="dp_path025" fill="black" d="M 223.731,-5.46667 L 227.393,-5.34133 C 227.393,-3.95333 228.052,-3.25867 229.369,-3.25867 C 230.073,-3.25867 230.669,-3.476 231.16,-3.908 C 231.651,-4.33867 231.896,-4.90267 231.896,-5.6 C 231.896,-6.40667 231.528,-7.06133 230.792,-7.56267 L 226.671,-10.3413 C 224.968,-11.492 224.116,-13.0293 224.116,-14.964 C 224.116,-17.568 225.405,-19.3453 227.981,-20.2987 C 228.655,-20.5507 229.328,-20.6773 230,-20.6773 C 230.953,-20.6773 231.935,-20.3893 232.94,-19.8187 C 233.949,-19.244 234.609,-18.5387 234.917,-17.6987 C 235.309,-16.636 235.505,-15.896 235.505,-15.476 L 231.973,-15.6027 C 231.833,-16.7653 231.147,-17.348 229.912,-17.348 C 229.296,-17.348 228.777,-17.144 228.356,-16.7413 C 227.936,-16.3347 227.725,-15.8227 227.725,-15.2093 C 227.725,-14.428 228.132,-13.756 228.945,-13.1987 L 232.688,-10.6813 C 234.427,-9.504 235.296,-7.85333 235.296,-5.72667 C 235.296,-4.044 234.581,-2.492 233.151,-1.06133 C 232.253,-0.168 231.035,0.28 229.492,0.28 C 228.427,0.28 227.404,-0.0213333 226.423,-0.62 C 225.441,-1.22267 224.747,-1.99733 224.34,-2.95067 C 223.933,-3.9 223.731,-4.74133 223.731,-5.46667 Z "/>
	</g>
	<g id="dp_dp026" transform="matrix(1,0,0,1,-1584.52,-38.8813)">
		<path id="dp_path027" fill="black" fill-rule="evenodd" d="M 1681.7,224.124 L 1696.98,217.972 L 1700.26,216.655 L 1700.26,231.592 L 1696.98,230.275 Z "/>
		<path id="dp_path028" fill="black" fill-rule="evenodd" d="M 1967.15,224.124 L 1951.88,230.275 L 1948.59,231.592 L 1948.59,216.655 L 1951.88,217.972 Z "/>
		<path id="dp_path029" fill="black" fill-rule="evenodd" d="M 1808.62,70.92 L 1800.44,50.612 L 1798.69,46.248 L 1818.55,46.248 L 1816.79,50.612 Z "/>
		<path id="dp_path030" fill="black" fill-rule="evenodd" d="M 1808.62,48.6667 L 1816.79,68.9747 L 1818.55,73.3387 L 1798.69,73.3387 L 1800.44,68.9747 Z "/>
		<path id="dp_path031" fill="black" fill-rule="evenodd" d="M 1824.43,80.8213 L 1817.97,64.772 L 1816.58,61.3227 L 1832.27,61.3227 L 1830.89,64.772 Z "/>
		<path id="dp_path032" fill="black" fill-rule="evenodd" d="M 1824.43,38.7653 L 1830.89,54.8147 L 1832.27,58.264 L 1816.58,58.264 L 1817.97,54.8147 Z "/>
		<path id="dp_path033" fill="black" fill-rule="evenodd" d="M 1840.24,70.92 L 1832.06,50.612 L 1830.31,46.248 L 1850.17,46.248 L 1848.42,50.612 Z "/>
		<path id="dp_path034" fill="black" fill-rule="evenodd" d="M 1840.24,48.6667 L 1848.42,68.9747 L 1850.17,73.3387 L 1830.31,73.3387 L 1832.06,68.9747 Z "/>
	</g>
</svg>