
<svg version="1.1" xmlns="http://www.w3.org/2000/svg" xmlns:xlink="http://www.w3.org/1999/xlink" width="1104" height="354.885">
	<path id="dp_path001" transform="matrix(1,0,0,1,-19.7053,-108.775)" fill="black" fill-rule="evenodd" d="M 247.816,425.131 C 261.041,414.341 274.537,401.803 289.747,393.231 C 299.757,387.589 310.508,383.669 322.415,383.099 C 354.377,381.568 381.304,405.249 406.965,420.997 C 415.704,426.364 424.451,432.289 433.609,437.312 C 436.32,438.797 439.967,442.117 443.385,441.869 C 446.391,441.656 446.357,437.899 446.357,435.749 C 446.357,427.839 446.357,419.924 446.357,412.013 C 446.357,410.153 446.159,408.721 444.593,407.532 C 432.26,398.156 419.051,389.768 408.045,378.797 C 405.137,375.896 401.721,372.716 399.781,369.055 C 392.339,354.989 398.625,339.615 409.741,329.592 C 413.62,326.096 417.823,322.973 421.975,319.815 C 423.408,318.724 424.777,317.549 426.219,316.471 C 427.252,315.695 428.54,315.223 429.82,314.843 C 437.932,314.732 446.045,314.621 454.159,314.512 C 465.292,314.512 476.425,314.512 487.56,314.512 C 487.975,314.512 488.352,314.331 488.613,314.044 C 634.164,312.068 779.715,310.092 925.267,308.116 C 925.267,308.116 925.255,307.153 925.255,307.153 C 925.255,307.153 925.788,307.145 925.788,307.145 C 925.788,307.38 925.788,307.509 925.788,307.509 C 936.981,307.509 951.08,306.828 959.385,315.897 C 962.464,319.259 964.057,323.707 966.836,327.299 C 970.796,332.42 974.331,335.392 981.127,333.241 C 996.467,328.383 1010.93,322.379 1027.35,322.547 C 1042.83,322.703 1057.31,328.199 1070.24,336.463 C 1082.51,344.304 1095.93,353.783 1106.82,363.517 C 1109.72,366.105 1112.84,369.809 1117.34,367.187 C 1119.33,366.025 1120.6,363.511 1121.43,360.527 C 1123.98,351.356 1122.85,341.132 1121.01,331.941 C 1119.52,324.557 1118.85,316.968 1116.65,309.74 C 1115.37,305.5 1114.91,301.421 1112.52,297.568 C 1108.47,291.049 1102.67,289.112 1095.73,286.98 C 1091.85,285.788 1087.98,284.549 1084.11,283.341 C 1071.35,279.367 1058.55,275.508 1045.77,271.627 C 1032.1,267.477 1018.49,263.144 1004.86,258.857 C 992.644,255.015 980.359,251.476 967.961,248.283 C 966.559,247.921 965.091,247.375 963.659,247.177 C 958.749,246.505 954.305,248.379 950.508,251.371 C 947.329,253.879 944.296,258.956 940.067,259.617 C 935.145,260.391 929.876,259.575 924.884,259.761 C 924.896,259.761 924.92,259.801 924.944,259.859 C 779.552,257.899 634.16,255.939 488.769,253.98 C 488.516,253.575 488.068,253.305 487.56,253.305 C 471.629,253.305 455.7,253.305 439.771,253.305 C 437.788,253.275 435.807,253.245 433.827,253.216 C 428.816,246.803 425.572,239.909 430.513,230.548 C 437.38,217.536 453.065,210.195 467.477,203.659 C 467.477,203.659 509.132,182.399 509.132,182.399 C 509.5,180.511 509.473,178.483 509.391,176.488 C 509.391,176.488 509.391,149.903 509.391,149.903 C 509.649,146.095 509.756,140.549 506.641,139.573 C 504.071,138.769 499.231,141.309 496.696,142.075 C 492.948,143.208 489.252,144.505 485.565,145.797 C 480.532,147.564 475.549,149.449 470.544,151.283 C 419.636,169.924 363.208,195.964 308.215,177.759 C 262.833,162.737 233.929,109.328 182.983,109.244 C 172.389,109.229 161.361,110.963 151.081,113.473 C 118.175,121.505 87.44,136.087 56.952,150.495 C 49.4587,154.037 41.1333,156.981 34.1307,161.437 C 31.144,163.337 28.1493,164.151 27.8973,168.175 C 27.5653,173.409 27.94,178.812 27.94,184.063 C 27.8813,185.623 27.8213,187.083 28.6573,188.504 C 37.0307,202.733 77.5573,189.591 72.2533,214.979 C 69.588,227.731 58.924,232.043 51.3253,241.284 C 29.4427,267.891 20.0027,294.26 20.0027,327.919 C 20.0027,402.539 83.192,463.035 161.139,463.036 C 195.1,463.037 222.371,445.887 247.816,425.131 Z "/>
</svg>