
<svg version="1.1" xmlns="http://www.w3.org/2000/svg" xmlns:xlink="http://www.w3.org/1999/xlink" width="105.443" height="99.9333">
	<g id="dp_dp001" transform="matrix(1,0,0,1,-2433.24,-55.964)">
		<path id="dp_path002" fill="black" fill-rule="evenodd" d="M 2443.19,62.9213 L 2440.66,65.608 L 2442.93,66.9853 C 2443.43,67.2947 2443.98,67.38 2444.57,67.244 C 2445.15,67.1147 2445.6,66.8 2445.9,66.2987 C 2446.18,65.8413 2446.29,65.4653 2446.25,65.172 C 2446.19,64.872 2445.93,64.5853 2445.49,64.3133 Z M 2435.1,69.452 L 2442.87,61.18 L 2446.42,63.332 C 2447.33,63.8813 2447.77,64.592 2447.76,65.4627 C 2447.75,65.8893 2447.62,66.3107 2447.37,66.724 C 2447.15,67.0933 2446.82,67.4307 2446.4,67.7373 C 2445.97,68.044 2445.55,68.24 2445.14,68.328 C 2444.93,68.3707 2444.53,68.4213 2443.91,68.4813 C 2444.31,69.0947 2444.29,69.7493 2443.87,70.4453 C 2443.76,70.6293 2443.62,70.8107 2443.46,70.9853 L 2441.33,73.2373 L 2440.11,72.4933 L 2442.26,70.204 C 2442.36,70.096 2442.44,69.9893 2442.5,69.8827 C 2442.7,69.5573 2442.77,69.2227 2442.72,68.876 C 2442.66,68.5307 2442.48,68.2613 2442.16,68.0693 L 2439.73,66.6107 L 2436.33,70.2027 Z "/>
		<path id="dp_path003" fill="black" fill-rule="evenodd" d="M 2452.19,74.008 L 2446.45,74.0893 L 2446.46,73.0133 L 2450.91,72.9173 C 2450.96,72.2907 2450.69,71.7787 2450.08,71.384 C 2449.64,71.092 2449.09,70.9347 2448.46,70.9107 C 2447.81,70.8907 2447.23,71 2446.73,71.2387 C 2446.23,71.4747 2445.85,71.792 2445.59,72.1867 C 2445.27,72.6773 2445.18,73.2 2445.31,73.7507 C 2445.44,74.312 2445.75,74.7533 2446.24,75.0747 C 2446.82,75.456 2447.59,75.58 2448.56,75.4467 C 2448.71,75.444 2448.87,75.4093 2449.07,75.34 L 2449.47,76.4133 C 2448.8,76.6587 2448.09,76.744 2447.35,76.6693 C 2446.61,76.5867 2445.93,76.3493 2445.33,75.9547 C 2444.29,75.2733 2443.77,74.428 2443.79,73.4213 C 2443.8,72.8373 2443.98,72.28 2444.33,71.7467 C 2444.83,70.9893 2445.6,70.392 2446.66,69.9533 C 2447.34,69.68 2448.06,69.58 2448.83,69.6573 C 2449.6,69.7427 2450.29,69.984 2450.9,70.384 C 2451.56,70.812 2452.01,71.3467 2452.25,71.9867 C 2452.49,72.62 2452.47,73.2933 2452.19,74.008 Z "/>
		<path id="dp_path004" fill="black" fill-rule="evenodd" d="M 2454.04,72.6347 L 2455.16,73.4133 L 2451.87,78.1267 C 2451.74,78.5267 2451.84,78.8413 2452.17,79.0707 C 2452.64,79.4013 2453.18,79.3733 2453.77,78.984 L 2458.64,75.8413 L 2459.77,76.6293 L 2454.75,79.8453 C 2454.22,80.1907 2453.65,80.3693 2453.02,80.3867 C 2452.36,80.4173 2451.78,80.2573 2451.28,79.9093 C 2450.79,79.568 2450.51,79.14 2450.44,78.628 C 2450.38,78.1173 2450.51,77.616 2450.85,77.1253 Z "/>
		<path id="dp_path005" fill="black" fill-rule="evenodd" d="M 2458.02,80.596 C 2457.53,81.2693 2457.46,81.9693 2457.81,82.696 C 2457.95,82.992 2458.15,83.2373 2458.42,83.432 C 2459.07,83.9107 2459.85,84.0693 2460.74,83.908 C 2461.63,83.748 2462.31,83.3387 2462.79,82.6813 C 2463.32,81.9493 2463.39,81.2173 2462.98,80.484 C 2462.84,80.2253 2462.65,80.0093 2462.41,79.8347 C 2462.03,79.56 2461.58,79.396 2461.05,79.34 C 2460.51,79.2827 2460.02,79.3373 2459.57,79.504 C 2458.88,79.7573 2458.37,80.1227 2458.02,80.596 Z M 2460.35,78.1267 C 2461.51,78.0707 2462.51,78.3493 2463.35,78.9627 C 2463.78,79.28 2464.16,79.7227 2464.48,80.292 C 2464.73,80.7253 2464.8,81.24 2464.71,81.8347 C 2464.63,82.384 2464.43,82.8747 2464.11,83.3067 C 2463.33,84.3867 2462.2,84.9813 2460.75,85.0893 C 2459.42,85.1907 2458.31,84.916 2457.43,84.2667 C 2456.55,83.624 2456.11,82.764 2456.12,81.688 C 2456.13,81.104 2456.34,80.5213 2456.77,79.94 C 2457.6,78.804 2458.79,78.1987 2460.35,78.1267 Z "/>
		<path id="dp_path006" fill="black" fill-rule="evenodd" d="M 2461.46,87.0613 L 2465.22,83.932 C 2465.66,83.5747 2466.17,83.336 2466.75,83.2147 C 2467.32,83.0893 2467.88,83.1067 2468.43,83.2667 C 2468.93,83.412 2469.34,83.608 2469.66,83.856 C 2470.34,84.3973 2470.62,85.0293 2470.5,85.7507 L 2470.84,85.7427 C 2471.64,85.7307 2472.34,85.964 2472.94,86.4413 C 2473.3,86.7267 2473.57,87.1013 2473.75,87.5627 C 2473.94,88.0667 2473.93,88.5147 2473.73,88.904 C 2473.58,89.2027 2473.44,89.4267 2473.32,89.5813 L 2473.13,89.812 C 2473.1,89.8453 2473.02,89.904 2472.92,89.988 L 2469.16,93.116 L 2468.12,92.2973 L 2471.87,89.1773 C 2471.98,89.084 2472.08,88.984 2472.16,88.88 C 2472.63,88.2813 2472.55,87.732 2471.91,87.2307 C 2471.57,86.964 2471.19,86.8467 2470.77,86.8813 C 2470.34,86.9267 2469.96,87.088 2469.62,87.3707 L 2465.85,90.5133 L 2464.78,89.6733 L 2468.55,86.5333 C 2468.67,86.4387 2468.76,86.344 2468.84,86.2467 C 2469.3,85.656 2469.24,85.1293 2468.65,84.6653 C 2468.28,84.38 2467.89,84.2507 2467.46,84.2787 C 2467.02,84.3027 2466.62,84.464 2466.26,84.7627 L 2462.51,87.88 Z "/>
		<path id="dp_path007" fill="black" fill-rule="evenodd" d="M 2479.79,95.2467 L 2474.1,94.5987 L 2474.24,93.532 L 2478.67,94.0027 C 2478.8,93.3867 2478.59,92.844 2478.04,92.3773 C 2477.63,92.0293 2477.12,91.804 2476.49,91.7 C 2475.85,91.5987 2475.26,91.6333 2474.74,91.8053 C 2474.21,91.9773 2473.79,92.244 2473.49,92.6027 C 2473.11,93.0493 2472.95,93.5533 2473.01,94.1173 C 2473.06,94.6907 2473.31,95.1667 2473.76,95.548 C 2474.29,96.0013 2475.04,96.2227 2476.01,96.212 C 2476.16,96.228 2476.33,96.2147 2476.53,96.1707 L 2476.79,97.288 C 2476.09,97.444 2475.38,97.4387 2474.66,97.272 C 2473.93,97.096 2473.29,96.7733 2472.74,96.3053 C 2471.8,95.4973 2471.39,94.5947 2471.54,93.5973 C 2471.63,93.02 2471.88,92.4893 2472.29,92.0053 C 2472.88,91.3173 2473.72,90.8227 2474.83,90.5227 C 2475.53,90.336 2476.26,90.3293 2477.02,90.5053 C 2477.77,90.6867 2478.43,91.0147 2478.98,91.4893 C 2479.58,91.996 2479.95,92.5827 2480.11,93.2493 C 2480.27,93.908 2480.16,94.5733 2479.79,95.2467 Z "/>
		<path id="dp_path008" fill="black" fill-rule="evenodd" d="M 2476.22,99.1 L 2480.17,96.1827 C 2480.8,95.7253 2481.55,95.5107 2482.4,95.5413 C 2483.24,95.5653 2483.95,95.8333 2484.53,96.3453 C 2484.59,96.4 2484.67,96.484 2484.76,96.5947 L 2483.75,97.3387 L 2483.5,97.1133 C 2483.2,96.8467 2482.86,96.7013 2482.48,96.6787 C 2482.08,96.6587 2481.71,96.7533 2481.36,96.964 L 2481.1,97.124 L 2477.21,99.98 Z "/>
		<path id="dp_path009" fill="black" fill-rule="evenodd" d="M 2488.56,103.204 L 2482.89,102.341 L 2483.07,101.28 L 2487.48,101.917 C 2487.63,101.308 2487.45,100.759 2486.92,100.271 C 2486.52,99.908 2486.01,99.664 2485.39,99.536 C 2484.75,99.4093 2484.17,99.4227 2483.63,99.5747 C 2483.1,99.7267 2482.68,99.9773 2482.36,100.324 C 2481.96,100.756 2481.78,101.255 2481.82,101.82 C 2481.85,102.393 2482.08,102.88 2482.51,103.277 C 2483.03,103.751 2483.77,104 2484.74,104.025 C 2484.89,104.048 2485.06,104.041 2485.26,104.004 L 2485.49,105.131 C 2484.78,105.26 2484.07,105.228 2483.35,105.035 C 2482.63,104.831 2482,104.484 2481.47,103.996 C 2480.56,103.152 2480.19,102.235 2480.37,101.245 C 2480.48,100.671 2480.75,100.151 2481.18,99.6813 C 2481.79,99.016 2482.66,98.5547 2483.78,98.296 C 2484.49,98.1373 2485.22,98.1573 2485.97,98.3613 C 2486.71,98.5707 2487.35,98.9227 2487.89,99.4187 C 2488.46,99.948 2488.82,100.548 2488.95,101.221 C 2489.09,101.884 2488.95,102.545 2488.56,103.204 Z "/>
		<path id="dp_path010" fill="none" fill-rule="evenodd" stroke="black" stroke-width="0.533333" d="M 2433.71,71.3 C 2450.84,81.764 2467.11,93.7707 2482.23,107.876"/>
		<path id="dp_path011" fill="none" fill-rule="evenodd" stroke="black" stroke-width="0.533333" d="M 2449.44,66.1893 C 2449.44,66.1893 2449.44,66.1893 2449.44,66.1893 C 2463.9,75.5253 2477.68,86.0773 2490.62,98.1547"/>
		<path id="dp_path012" fill="black" fill-rule="evenodd" d="M 2500.42,109.047 L 2502.44,110.952 C 2502.88,111.365 2503.45,111.556 2504.14,111.523 C 2504.81,111.493 2505.35,111.256 2505.77,110.812 C 2506.09,110.475 2506.25,110.105 2506.26,109.699 C 2506.26,109.311 2506.1,108.963 2505.77,108.656 L 2503.73,106.733 Z M 2487.48,112.531 L 2503.61,101.344 L 2509.69,107.065 C 2511.04,108.332 2511.54,109.719 2511.2,111.225 C 2511.03,111.975 2510.64,112.672 2510.04,113.317 C 2509.39,114.007 2508.57,114.531 2507.57,114.887 C 2506.55,115.247 2505.57,115.372 2504.62,115.263 L 2503.86,115.167 C 2504.32,116.189 2504.14,117.132 2503.33,117.996 C 2503.17,118.164 2502.95,118.347 2502.67,118.545 L 2497.61,122.056 L 2494.27,118.912 L 2498.49,115.975 C 2498.71,115.831 2498.89,115.676 2499.05,115.504 C 2499.83,114.677 2499.88,113.939 2499.19,113.291 L 2497.09,111.353 L 2490.84,115.692 Z "/>
		<path id="dp_path013" fill="black" fill-rule="evenodd" d="M 2506.56,122.689 C 2506.07,123.156 2505.82,123.688 2505.79,124.279 C 2505.75,124.856 2505.97,125.381 2506.42,125.855 C 2507.33,126.801 2508.6,127.061 2510.22,126.639 C 2510.71,126.509 2511.17,126.235 2511.61,125.816 C 2512.11,125.333 2512.37,124.797 2512.39,124.203 C 2512.42,123.611 2512.19,123.068 2511.71,122.572 C 2511.17,122.005 2510.48,121.691 2509.65,121.627 C 2508.44,121.519 2507.41,121.872 2506.56,122.689 Z M 2510.08,118.001 C 2512.16,118.215 2513.87,119.017 2515.22,120.415 C 2516.55,121.793 2517.07,123.417 2516.77,125.283 C 2516.61,126.299 2516.03,127.289 2515.03,128.253 C 2514.65,128.625 2513.92,129.155 2512.84,129.847 C 2511.58,130.669 2509.87,130.835 2507.72,130.345 C 2505.69,129.879 2504.13,129.079 2503.03,127.943 C 2501.89,126.752 2501.32,125.461 2501.33,124.069 C 2501.32,122.672 2501.91,121.4 2503.1,120.252 C 2504.96,118.461 2507.28,117.713 2510.08,118.001 Z "/>
		<path id="dp_path014" fill="black" fill-rule="evenodd" d="M 2526.05,132.553 L 2522.56,134.577 C 2522.48,134.359 2522.33,134.123 2522.11,133.871 C 2521.64,133.355 2520.99,133.007 2520.16,132.825 C 2519.33,132.645 2518.62,132.72 2518.04,133.051 C 2517.52,133.349 2517.2,133.552 2517.08,133.659 C 2516.53,134.147 2516.28,134.699 2516.31,135.319 C 2516.33,135.949 2516.58,136.543 2517.08,137.097 L 2517.53,137.481 L 2513.98,139.528 L 2513.1,138.628 C 2513.03,138.551 2512.96,138.471 2512.89,138.392 C 2511.93,137.32 2511.44,136.111 2511.43,134.765 C 2511.4,133.304 2511.98,132.043 2513.16,130.984 C 2514.25,130.008 2515.61,129.383 2517.25,129.107 C 2518.82,128.833 2520.34,128.917 2521.78,129.359 C 2523.22,129.813 2524.4,130.556 2525.33,131.588 L 2525.66,131.961 C 2525.76,132.067 2525.89,132.267 2526.05,132.553 Z "/>
		<path id="dp_path015" fill="black" fill-rule="evenodd" d="M 2532.17,139.775 L 2528.63,141.704 C 2528.56,141.484 2528.42,141.244 2528.2,140.984 C 2527.75,140.456 2527.11,140.091 2526.28,139.887 C 2525.45,139.684 2524.74,139.74 2524.15,140.055 C 2523.62,140.339 2523.3,140.533 2523.18,140.637 C 2522.62,141.109 2522.35,141.655 2522.37,142.275 C 2522.37,142.905 2522.61,143.505 2523.09,144.075 L 2523.53,144.469 L 2519.92,146.419 L 2519.07,145.496 C 2519,145.416 2518.93,145.335 2518.86,145.253 C 2517.93,144.157 2517.47,142.935 2517.5,141.589 C 2517.52,140.127 2518.13,138.883 2519.34,137.856 C 2520.45,136.911 2521.83,136.321 2523.47,136.091 C 2525.05,135.86 2526.56,135.985 2528,136.465 C 2529.42,136.959 2530.58,137.735 2531.48,138.791 L 2531.81,139.173 C 2531.9,139.281 2532.02,139.484 2532.17,139.775 Z "/>
		<path id="dp_path016" fill="black" fill-rule="evenodd" d="M 2528.79,147.64 C 2528.26,148.057 2527.95,148.561 2527.87,149.147 C 2527.77,149.717 2527.93,150.261 2528.34,150.777 C 2529.15,151.807 2530.39,152.191 2532.04,151.928 C 2532.54,151.847 2533.03,151.619 2533.51,151.244 C 2534.05,150.812 2534.36,150.304 2534.45,149.716 C 2534.53,149.129 2534.35,148.567 2533.93,148.025 C 2533.44,147.409 2532.79,147.029 2531.97,146.885 C 2530.77,146.659 2529.71,146.909 2528.79,147.64 Z M 2532.75,143.319 C 2534.8,143.733 2536.42,144.699 2537.63,146.22 C 2538.82,147.723 2539.17,149.389 2538.69,151.217 C 2538.44,152.213 2537.77,153.143 2536.68,154.004 C 2536.26,154.336 2535.48,154.793 2534.34,155.376 C 2533,156.072 2531.29,156.069 2529.19,155.373 C 2527.22,154.711 2525.74,153.761 2524.76,152.524 C 2523.74,151.228 2523.3,149.887 2523.45,148.503 C 2523.57,147.111 2524.28,145.903 2525.58,144.877 C 2527.6,143.276 2529.99,142.757 2532.75,143.319 Z "/>
		<path id="dp_path017" fill="black" fill-rule="evenodd" d="M 2490.24,80.404 L 2497.94,60.244 L 2499.6,55.916 L 2513.95,69.2293 L 2509.76,71.2093 Z "/>
		<path id="dp_path018" fill="black" fill-rule="evenodd" d="M 2513.09,101.604 L 2520.8,81.4453 L 2522.46,77.1173 L 2536.81,90.4293 L 2532.62,92.4093 Z "/>
		<path id="dp_path019" fill="black" fill-rule="evenodd" d="M 2528.01,85.5213 L 2520.31,105.68 L 2518.65,110.008 L 2504.29,96.696 L 2508.49,94.716 Z "/>
		<path id="dp_path020" fill="black" fill-rule="evenodd" d="M 2505.16,64.3213 L 2497.45,84.48 L 2495.79,88.808 L 2481.44,75.4947 L 2485.63,73.5147 Z "/>
		<path id="dp_path021" fill="black" fill-rule="evenodd" d="M 2495.03,98.1587 L 2501.12,82.228 L 2502.43,78.8067 L 2513.77,89.328 L 2510.46,90.8933 Z "/>
		<path id="dp_path022" fill="black" fill-rule="evenodd" d="M 2523.22,67.7667 L 2517.13,83.6973 L 2515.82,87.1187 L 2504.48,76.5973 L 2507.79,75.032 Z "/>
	</g>
</svg>